<?xml version="1.0" encoding="UTF-8"?>
<svg width="22px" height="20px" viewBox="0 0 22 20" version="1.1" xmlns="http://www.w3.org/2000/svg" xmlns:xlink="http://www.w3.org/1999/xlink">
    <!-- Generator: Sketch 63.1 (92452) - https://sketch.com -->
    <title>ic_activity</title>
    <desc>Created with Sketch.</desc>
    <g id="CRT---Key-Pages" stroke="none" stroke-width="1" fill="none" fill-rule="evenodd">
        <g id="COMPONENTS" transform="translate(-171.000000, -801.000000)" fill="#162E51" fill-rule="nonzero">
            <path d="M185,820.99863 C184.570084,820.999739 184.187572,820.726066 184.05,820.31894 L179,805.16585 L177,811.323042 C176.857006,811.748219 176.448152,812.026113 176,812.002732 L172,812.002732 C171.447715,812.002732 171,811.555221 171,811.003188 C171,810.451155 171.447715,810.003644 172,810.003644 L175.28,810.003644 L178.05,801.687437 C178.184884,801.277249 178.568027,801 179,801 C179.431973,801 179.815116,801.277249 179.95,801.687437 L185,816.840526 L187.05,810.683334 C187.187572,810.276208 187.570084,810.002535 188,810.003644 L192,810.003644 C192.552285,810.003644 193,810.451155 193,811.003188 C193,811.555221 192.552285,812.002732 192,812.002732 L188.72,812.002732 L186,820.31894 C185.857006,820.744117 185.448152,821.022011 185,820.99863 Z" id="ic_activity"></path>
        </g>
    </g>
</svg>