<?xml version="1.0" encoding="UTF-8"?>
<svg width="14px" height="9px" viewBox="0 0 14 9" version="1.1" xmlns="http://www.w3.org/2000/svg" xmlns:xlink="http://www.w3.org/1999/xlink">
    <!-- Generator: Sketch 63.1 (92452) - https://sketch.com -->
    <title>ic_chevron-up</title>
    <desc>Created with Sketch.</desc>
    <g id="CRT---Key-Pages" stroke="none" stroke-width="1" fill="none" fill-rule="evenodd">
        <g id="Artboard" transform="translate(-228.000000, -50.000000)">
            <g id="ic_chevron-up" transform="translate(225.000000, 45.000000)">
                <rect id="Rectangle-Copy-8" transform="translate(10.000000, 10.000000) rotate(-180.000000) translate(-10.000000, -10.000000) " x="0" y="0" width="20" height="20"></rect>
                <path d="M3.29289322,5.55458172 C3.65337718,5.17971191 4.22060824,5.15087577 4.61289944,5.4680733 L4.70710678,5.55458172 L10,11.0578809 L15.2928932,5.55458172 C15.6533772,5.17971191 16.2206082,5.15087577 16.6128994,5.4680733 L16.7071068,5.55458172 C17.0675907,5.92945154 17.0953203,6.51931911 16.7902954,6.9272655 L16.7071068,7.02523238 L10,14 L3.29289322,7.02523238 C2.90236893,6.61912341 2.90236893,5.96069069 3.29289322,5.55458172 Z" id="Path-3-Copy-13" fill="#162E51" fill-rule="nonzero" transform="translate(10.000000, 9.625000) rotate(-180.000000) translate(-10.000000, -9.625000) "></path>
            </g>
        </g>
    </g>
</svg>