<?xml version="1.0" encoding="UTF-8"?>
<svg width="22px" height="22px" viewBox="0 0 22 22" version="1.1" xmlns="http://www.w3.org/2000/svg" xmlns:xlink="http://www.w3.org/1999/xlink">
    <!-- Generator: Sketch 63.1 (92452) - https://sketch.com -->
    <title>ic_check-circle</title>
    <desc>Created with Sketch.</desc>
    <g id="CRT---Key-Pages" stroke="none" stroke-width="1" fill="none" fill-rule="evenodd">
        <g id="COMPONENTS" transform="translate(-172.000000, -372.000000)" fill="#162E51" fill-rule="nonzero">
            <g id="ic_check-circle" transform="translate(172.000000, 372.000000)">
                <g id="check-circle">
                    <path d="M11,22 L11,22 C4.92486775,22 0,17.0751322 0,11 C0,4.92486775 4.92486775,0 11,0 C12.5463578,0.0204598361 14.071722,0.360942925 15.48,1 C15.9474168,1.24631696 16.1425659,1.81374712 15.9255309,2.29545897 C15.7084959,2.77717082 15.1541747,3.00692754 14.66,2.82 C13.5111262,2.29266245 12.264049,2.01326265 11,2 L11,2 C6.0294373,2 2,6.0294373 2,11 C2,15.9705627 6.0294373,20 11,20 L11,20 C15.9705627,20 20,15.9705627 20,11 L20,10.08 C20,9.52771525 20.4477153,9.08 21,9.08 C21.5522847,9.08 22,9.52771525 22,10.08 L22,11 C22,17.0751322 17.0751322,22 11,22 Z" id="Path"></path>
                    <path d="M11,14.0000167 C10.734197,14.0015368 10.4787188,13.8971865 10.29,13.71 L7.29,10.71 C6.90063927,10.3178778 6.90287785,9.68436076 7.29500001,9.29500001 C7.68712218,8.90563927 8.32063925,8.90787784 8.71,9.3 L11,11.6 L20.29,2.29 C20.6821222,1.89787783 21.3178778,1.89787783 21.71,2.29 C22.1021222,2.68212217 22.1021222,3.31787783 21.71,3.71 L11.71,13.71 C11.5212812,13.8971865 11.265803,14.0015368 11,14.0000167 Z" id="Path"></path>
                </g>
            </g>
        </g>
    </g>
</svg>