<?xml version="1.0" encoding="UTF-8"?>
<svg width="22px" height="22px" viewBox="0 0 22 22" version="1.1" xmlns="http://www.w3.org/2000/svg" xmlns:xlink="http://www.w3.org/1999/xlink">
    <!-- Generator: Sketch 63.1 (92452) - https://sketch.com -->
    <title>ic_contact</title>
    <desc>Created with Sketch.</desc>
    <g id="CRT---Key-Pages" stroke="none" stroke-width="1" fill="none" fill-rule="evenodd">
        <g id="COMPONENTS" transform="translate(-636.000000, -253.000000)" fill="#162E51" fill-rule="nonzero">
            <path d="M654.951069,275 L654.6803,275 C651.431473,274.642165 648.310498,273.532808 645.564392,271.759733 C643.022338,270.139815 640.865824,267.982594 639.246436,265.439708 C637.467267,262.693145 636.360912,259.565464 636.017258,256.310782 C635.929924,255.509391 636.176605,254.707418 636.699197,254.093758 C637.203146,253.464975 637.942367,253.069869 638.745011,253.000145 L642.054416,253.000145 C643.564504,252.985426 644.851617,254.092706 645.062967,255.588494 C645.182869,256.47941 645.401498,257.354213 645.714819,258.196758 C646.124663,259.296073 645.858484,260.53343 645.032881,261.366803 L644.310829,262.089091 C645.490822,263.941643 647.061966,265.513302 648.913911,266.693681 L649.625935,265.971392 C650.460962,265.141477 651.703132,264.87493 652.80497,265.289231 C653.643817,265.602572 654.515003,265.821281 655.402352,265.941297 C656.901639,266.14814 658.013926,267.436926 657.999868,268.950833 L657.999868,271.960369 C657.999868,273.62249 656.65276,274.969905 654.991183,274.969905 L654.951069,275 Z M642.044388,255.00665 L639.035837,255.00665 C638.739346,255.014005 638.459408,255.144928 638.263643,255.367795 C638.096309,255.573178 638.016995,255.836441 638.043016,256.100115 C638.340007,259.035648 639.322466,261.860284 640.911167,264.346243 C642.377597,266.64593 644.328479,268.597451 646.627413,270.064361 C649.105002,271.664191 651.91999,272.666929 654.850784,272.993643 L654.951069,272.993643 C655.215591,272.989874 655.467908,272.881702 655.653065,272.692689 C655.838335,272.505836 655.942783,272.253638 655.94394,271.990464 L655.94394,268.980928 C655.948845,268.477401 655.579873,268.048223 655.08144,267.97775 C654.0542,267.837259 653.045369,267.584969 652.072889,267.225366 C651.705937,267.084116 651.290321,267.170405 651.009868,267.446065 L649.736249,268.669943 C649.416728,268.987853 648.924455,269.05351 648.532828,268.830452 C645.862732,267.312458 643.652141,265.101143 642.134644,262.430172 C641.911658,262.038417 641.977295,261.545983 642.2951,261.226358 L643.56872,259.952321 C643.820803,259.683808 643.9055,259.298694 643.789347,258.949142 C643.431668,257.975787 643.179509,256.966824 643.03721,255.939606 C643.000564,255.417004 642.568088,255.010605 642.044388,255.00665 Z" id="ic_contact"></path>
        </g>
    </g>
</svg>