<?xml version="1.0" encoding="UTF-8"?>
<svg width="24px" height="18px" viewBox="0 0 24 18" version="1.1" xmlns="http://www.w3.org/2000/svg" xmlns:xlink="http://www.w3.org/1999/xlink">
    <!-- Generator: Sketch 64 (93537) - https://sketch.com -->
    <title>ic-email</title>
    <desc>Created with Sketch.</desc>
    <g id="Intake-type" stroke="none" stroke-width="1" fill="none" fill-rule="evenodd">
        <g id="ic-email">
            <g id="mail" fill="#162E51" fill-rule="nonzero">
                <g>
                    <path d="M20,18 L4,18 C2.34314575,18 1,16.6568542 1,15 L1,3 C1,1.34314575 2.34314575,0 4,0 L20,0 C21.6568542,0 23,1.34314575 23,3 L23,15 C23,16.6568542 21.6568542,18 20,18 Z M4,2 C3.44771525,2 3,2.44771525 3,3 L3,15 C3,15.5522847 3.44771525,16 4,16 L20,16 C20.5522847,16 21,15.5522847 21,15 L21,3 C21,2.44771525 20.5522847,2 20,2 L4,2 Z" id="Shape"></path>
                    <path d="M12,11 C11.796092,10.9995172 11.5972045,10.9367107 11.43,10.82 L1.43,3.82 C1.1159015,3.62505713 0.934973566,3.2727322 0.959545386,2.9038734 C0.984117206,2.53501459 1.21017986,2.20980166 1.54736075,2.05824428 C1.88454164,1.90668691 2.27782932,1.95351185 2.57,2.18 L12,8.78 L21.43,2.18 C21.7221707,1.95351185 22.1154584,1.90668691 22.4526393,2.05824428 C22.7898201,2.20980166 23.0158828,2.53501459 23.0404546,2.9038734 C23.0650264,3.2727322 22.8840985,3.62505713 22.57,3.82 L12.57,10.82 C12.4027955,10.9367107 12.203908,10.9995172 12,11 Z" id="Path"></path>
                </g>
            </g>
            <circle id="Oval" fill="#FFFFFF" cx="11.5" cy="8.5" r="4.5"></circle>
            <path d="M11.3625009,13.4300002 C12.7210011,13.4300002 13.8390013,12.9815002 14.5020014,12.4485001 L13.9170013,11.6749999 C13.2800012,12.104 12.7405011,12.4485001 11.5640009,12.4485001 C9.0745005,12.4485001 7.57950026,11.0119998 7.57950026,8.67199945 C7.57950026,6.5074991 8.83400046,4.6679988 11.6030009,4.6679988 C13.3320012,4.6679988 15.0285015,5.44799893 15.0285015,7.78149931 C15.0285015,9.19199954 14.4175014,9.90049966 13.8065013,9.90049966 C13.4945012,9.90049966 13.3125012,9.71199962 13.4165012,9.10099952 L13.8845013,6.30599907 L12.7925011,6.30599907 L12.7275011,6.58549911 C12.7145011,6.66349913 12.6625011,6.67649913 12.6235011,6.63099912 C12.324501,6.26699906 11.954001,5.98099901 11.2455009,5.98099901 C9.69200061,5.98099901 8.68450044,7.35899924 8.68450044,8.91249949 C8.67800044,10.2709997 9.52300058,11.1549999 10.6020008,11.1549999 C11.3430009,11.1549999 11.915001,10.8234998 12.292001,10.3684997 C12.370001,10.2774997 12.396001,10.2709997 12.4545011,10.3684997 C12.5975011,10.6674998 12.9420011,10.9729998 13.6765013,10.9729998 C15.1455015,10.9729998 16.1790017,9.63399961 16.1790017,7.7034993 C16.1790017,4.84349883 13.8910013,3.62799863 11.6095009,3.62799863 C8.4180004,3.62799863 6.40300007,5.95499901 6.40300007,8.69149946 C6.40300007,11.2979999 8.24250037,13.4300002 11.3625009,13.4300002 Z M10.9400008,10.0044997 C10.3355007,10.0044997 10.0300007,9.46499958 10.0300007,8.78249947 C10.0300007,7.85299932 10.6085008,7.1184992 11.3430009,7.1184992 C11.947501,7.1184992 12.370001,7.67749929 12.298501,8.48349942 C12.240001,9.26349955 11.6680009,10.0044997 10.9400008,10.0044997 Z" id="@" fill="#1C304A" fill-rule="nonzero"></path>
        </g>
    </g>
</svg>