<?xml version="1.0" encoding="UTF-8"?>
<svg width="20px" height="20px" viewBox="0 0 20 20" version="1.1" xmlns="http://www.w3.org/2000/svg" xmlns:xlink="http://www.w3.org/1999/xlink">
    <title>ic_fax</title>
    <g id="Styles" stroke="none" stroke-width="1" fill="none" fill-rule="evenodd">
        <g id="Icons-internal" transform="translate(-207.000000, -171.000000)">
            <g id="ic_fax" transform="translate(207.000000, 171.000000)">
                <g id="printer" transform="translate(2.000000, 2.000000)" fill="#162E51" fill-rule="nonzero">
                    <path d="M12.3636364,6.54545455 C11.9619747,6.54545455 11.6363636,6.21984345 11.6363636,5.81818182 L11.6363636,1.45454545 L4.36363636,1.45454545 L4.36363636,5.81818182 C4.36363636,6.21984345 4.03802527,6.54545455 3.63636364,6.54545455 C3.234702,6.54545455 2.90909091,6.21984345 2.90909091,5.81818182 L2.90909091,0.727272727 C2.90909091,0.325611091 3.234702,0 3.63636364,0 L12.3636364,0 C12.765298,0 13.0909091,0.325611091 13.0909091,0.727272727 L13.0909091,5.81818182 C13.0909091,6.21984345 12.765298,6.54545455 12.3636364,6.54545455 Z" id="Path"></path>
                    <path d="M13.8181818,13.0909091 L12.3636364,13.0909091 C11.9619747,13.0909091 11.6363636,12.765298 11.6363636,12.3636364 C11.6363636,11.9619747 11.9619747,11.6363636 12.3636364,11.6363636 L13.8181818,11.6363636 C14.2198435,11.6363636 14.5454545,11.3107525 14.5454545,10.9090909 L14.5454545,7.27272727 C14.5454545,6.87106564 14.2198435,6.54545455 13.8181818,6.54545455 L2.18181818,6.54545455 C1.78015655,6.54545455 1.45454545,6.87106564 1.45454545,7.27272727 L1.45454545,10.9090909 C1.45454545,11.3107525 1.78015655,11.6363636 2.18181818,11.6363636 L3.63636364,11.6363636 C4.03802527,11.6363636 4.36363636,11.9619747 4.36363636,12.3636364 C4.36363636,12.765298 4.03802527,13.0909091 3.63636364,13.0909091 L2.18181818,13.0909091 C0.976833273,13.0909091 0,12.1140758 0,10.9090909 L0,7.27272727 C0,6.06774236 0.976833273,5.09090909 2.18181818,5.09090909 L13.8181818,5.09090909 C15.0231667,5.09090909 16,6.06774236 16,7.27272727 L16,10.9090909 C16,12.1140758 15.0231667,13.0909091 13.8181818,13.0909091 Z" id="Path"></path>
                    <path d="M12.3636364,16 L3.63636364,16 C3.234702,16 2.90909091,15.6743889 2.90909091,15.2727273 L2.90909091,10.9090909 C2.90909091,10.5074293 3.234702,10.1818182 3.63636364,10.1818182 L12.3636364,10.1818182 C12.765298,10.1818182 13.0909091,10.5074293 13.0909091,10.9090909 L13.0909091,15.2727273 C13.0909091,15.6743889 12.765298,16 12.3636364,16 Z M4.36363636,14.5454545 L11.6363636,14.5454545 L11.6363636,11.6363636 L4.36363636,11.6363636 L4.36363636,14.5454545 Z" id="Shape"></path>
                </g>
                <circle id="Oval" fill="#162E51" cx="12.1818182" cy="10" r="1"></circle>
                <circle id="Oval-Copy" fill="#162E51" cx="14.3636364" cy="10" r="1"></circle>
                <rect id="Rectangle" x="0" y="0" width="20" height="20"></rect>
            </g>
        </g>
    </g>
</svg>