<?xml version="1.0" encoding="UTF-8"?>
<svg width="22px" height="20px" viewBox="0 0 22 20" version="1.1" xmlns="http://www.w3.org/2000/svg" xmlns:xlink="http://www.w3.org/1999/xlink">
    <!-- Generator: Sketch 63.1 (92452) - https://sketch.com -->
    <title>ic_folder</title>
    <desc>Created with Sketch.</desc>
    <g id="CRT---Key-Pages" stroke="none" stroke-width="1" fill="none" fill-rule="evenodd">
        <g id="COMPONENTS" transform="translate(-636.000000, -615.000000)" fill="#162E51" fill-rule="nonzero">
            <g id="folder" transform="translate(636.000000, 615.000000)">
                <g id="ic_folder">
                    <path d="M19,20 L3,20 C1.34314575,20 0,18.6568542 0,17 L0,3 C0,1.34314575 1.34314575,0 3,0 L8,0 C8.3345191,0.00173064678 8.64601651,0.170614788 8.83,0.45 L10.54,3 L19,3 C20.6568542,3 22,4.34314575 22,6 L22,17 C22,18.6568542 20.6568542,20 19,20 Z M3,2 C2.44771525,2 2,2.44771525 2,3 L2,17 C2,17.5522847 2.44771525,18 3,18 L19,18 C19.5522847,18 20,17.5522847 20,17 L20,6 C20,5.44771525 19.5522847,5 19,5 L10,5 C9.6654809,4.99826935 9.35398349,4.82938521 9.17,4.55 L7.46,2 L3,2 Z" id="Shape"></path>
                </g>
            </g>
        </g>
    </g>
</svg>