<?xml version="1.0" encoding="UTF-8"?>
<svg width="22px" height="22px" viewBox="0 0 22 22" version="1.1" xmlns="http://www.w3.org/2000/svg" xmlns:xlink="http://www.w3.org/1999/xlink">
    <!-- Generator: Sketch 64 (93537) - https://sketch.com -->
    <title>ic_fax</title>
    <desc>Created with Sketch.</desc>
    <g id="Intake-type" stroke="none" stroke-width="1" fill="none" fill-rule="evenodd">
        <g id="ic_fax">
            <g id="printer" fill="#162E51" fill-rule="nonzero">
                <path d="M17,9 C16.4477153,9 16,8.55228475 16,8 L16,2 L6,2 L6,8 C6,8.55228475 5.55228475,9 5,9 C4.44771525,9 4,8.55228475 4,8 L4,1 C4,0.44771525 4.44771525,0 5,0 L17,0 C17.5522847,0 18,0.44771525 18,1 L18,8 C18,8.55228475 17.5522847,9 17,9 Z" id="Path"></path>
                <path d="M19,18 L17,18 C16.4477153,18 16,17.5522847 16,17 C16,16.4477153 16.4477153,16 17,16 L19,16 C19.5522847,16 20,15.5522847 20,15 L20,10 C20,9.44771525 19.5522847,9 19,9 L3,9 C2.44771525,9 2,9.44771525 2,10 L2,15 C2,15.5522847 2.44771525,16 3,16 L5,16 C5.55228475,16 6,16.4477153 6,17 C6,17.5522847 5.55228475,18 5,18 L3,18 C1.34314575,18 0,16.6568542 0,15 L0,10 C0,8.34314575 1.34314575,7 3,7 L19,7 C20.6568542,7 22,8.34314575 22,10 L22,15 C22,16.6568542 20.6568542,18 19,18 Z" id="Path"></path>
                <path d="M17,22 L5,22 C4.44771525,22 4,21.5522847 4,21 L4,15 C4,14.4477153 4.44771525,14 5,14 L17,14 C17.5522847,14 18,14.4477153 18,15 L18,21 C18,21.5522847 17.5522847,22 17,22 Z M6,20 L16,20 L16,16 L6,16 L6,20 Z" id="Shape"></path>
            </g>
            <circle id="Oval" fill="#000000" cx="14" cy="11" r="1"></circle>
            <circle id="Oval-Copy" fill="#000000" cx="17" cy="11" r="1"></circle>
        </g>
    </g>
</svg>