<?xml version="1.0" encoding="UTF-8"?>
<svg width="18px" height="15px" viewBox="0 0 18 15" version="1.1" xmlns="http://www.w3.org/2000/svg" xmlns:xlink="http://www.w3.org/1999/xlink">
    <!-- Generator: Sketch 63.1 (92452) - https://sketch.com -->
    <title>ic_filters</title>
    <desc>Created with Sketch.</desc>
    <g id="CRT---Key-Pages" stroke="none" stroke-width="1" fill="none" fill-rule="evenodd">
        <g id="Artboard" transform="translate(-88.000000, -48.000000)">
            <g id="ic_filters" transform="translate(87.000000, 45.000000)">
                <rect id="Rectangle-Copy-3" x="0" y="0" width="20" height="20"></rect>
                <g id="sliders" transform="translate(1.000000, 3.000000)" fill="#162E51" fill-rule="nonzero">
                    <path d="M3,15 C2.58578644,15 2.25,14.6642136 2.25,14.25 L2.25,9 C2.25,8.58578644 2.58578644,8.25 3,8.25 C3.41421356,8.25 3.75,8.58578644 3.75,9 L3.75,14.25 C3.75,14.6642136 3.41421356,15 3,15 Z" id="Path"></path>
                    <path d="M3,6.75 C2.58578644,6.75 2.25,6.41421356 2.25,6 L2.25,0.75 C2.25,0.335786438 2.58578644,0 3,0 C3.41421356,0 3.75,0.335786438 3.75,0.75 L3.75,6 C3.75,6.41421356 3.41421356,6.75 3,6.75 Z" id="Path"></path>
                    <path d="M9,15 C8.58578644,15 8.25,14.6642136 8.25,14.25 L8.25,7.5 C8.25,7.08578644 8.58578644,6.75 9,6.75 C9.41421356,6.75 9.75,7.08578644 9.75,7.5 L9.75,14.25 C9.75,14.6642136 9.41421356,15 9,15 Z" id="Path"></path>
                    <path d="M9,5.25 C8.58578644,5.25 8.25,4.91421356 8.25,4.5 L8.25,0.75 C8.25,0.335786438 8.58578644,0 9,0 C9.41421356,0 9.75,0.335786438 9.75,0.75 L9.75,4.5 C9.75,4.91421356 9.41421356,5.25 9,5.25 Z" id="Path"></path>
                    <path d="M15,15 C14.5857864,15 14.25,14.6642136 14.25,14.25 L14.25,10.5 C14.25,10.0857864 14.5857864,9.75 15,9.75 C15.4142136,9.75 15.75,10.0857864 15.75,10.5 L15.75,14.25 C15.75,14.6642136 15.4142136,15 15,15 Z" id="Path"></path>
                    <path d="M15,8.25 C14.5857864,8.25 14.25,7.91421356 14.25,7.5 L14.25,0.75 C14.25,0.335786438 14.5857864,0 15,0 C15.4142136,0 15.75,0.335786438 15.75,0.75 L15.75,7.5 C15.75,7.91421356 15.4142136,8.25 15,8.25 Z" id="Path"></path>
                    <path d="M5.25,9.75 L0.75,9.75 C0.335786438,9.75 0,9.41421356 0,9 C0,8.58578644 0.335786438,8.25 0.75,8.25 L5.25,8.25 C5.66421356,8.25 6,8.58578644 6,9 C6,9.41421356 5.66421356,9.75 5.25,9.75 Z" id="Path"></path>
                    <path d="M11.25,5.25 L6.75,5.25 C6.33578644,5.25 6,4.91421356 6,4.5 C6,4.08578644 6.33578644,3.75 6.75,3.75 L11.25,3.75 C11.6642136,3.75 12,4.08578644 12,4.5 C12,4.91421356 11.6642136,5.25 11.25,5.25 Z" id="Path"></path>
                    <path d="M17.25,11.25 L12.75,11.25 C12.3357864,11.25 12,10.9142136 12,10.5 C12,10.0857864 12.3357864,9.75 12.75,9.75 L17.25,9.75 C17.6642136,9.75 18,10.0857864 18,10.5 C18,10.9142136 17.6642136,11.25 17.25,11.25 Z" id="Path"></path>
                </g>
            </g>
        </g>
    </g>
</svg>