<?xml version="1.0" encoding="UTF-8"?>
<svg width="18px" height="22px" viewBox="0 0 18 22" version="1.1" xmlns="http://www.w3.org/2000/svg" xmlns:xlink="http://www.w3.org/1999/xlink">
    <!-- Generator: Sketch 64 (93537) - https://sketch.com -->
    <title>ic_letter</title>
    <desc>Created with Sketch.</desc>
    <g id="Intake-type" stroke="none" stroke-width="1" fill="none" fill-rule="evenodd">
        <g id="ic_letter" fill="#162E51" fill-rule="nonzero">
            <g id="file-text">
                <path d="M15,22 L3,22 C1.34314575,22 0,20.6568542 0,19 L0,3 C0,1.34314575 1.34314575,-1.67362795e-05 3,-1.67362795e-05 L11,-1.67362795e-05 C11.265803,-0.0015367588 11.5212812,0.102813486 11.71,0.29 L17.71,6.29 C17.8971865,6.47871883 18.0015368,6.73419702 18.0000167,7 L18.0000167,19 C18.0000167,20.6568542 16.6568542,22 15,22 Z M3,2 C2.44771525,2 2,2.44771525 2,3 L2,19 C2,19.5522847 2.44771525,20 3,20 L15,20 C15.5522847,20 16,19.5522847 16,19 L16,7.41 L10.59,2 L3,2 Z" id="Shape"></path>
                <path d="M17,8 L11,8 C10.4477153,8 10,7.55228475 10,7 L10,1 C10,0.44771525 10.4477153,0 11,0 C11.5522847,0 12,0.44771525 12,1 L12,6 L17,6 C17.5522847,6 18,6.44771525 18,7 C18,7.55228475 17.5522847,8 17,8 Z" id="Path"></path>
                <path d="M13,13 L5,13 C4.44771525,13 4,12.5522847 4,12 C4,11.4477153 4.44771525,11 5,11 L13,11 C13.5522847,11 14,11.4477153 14,12 C14,12.5522847 13.5522847,13 13,13 Z" id="Path"></path>
                <path d="M13,17 L5,17 C4.44771525,17 4,16.5522847 4,16 C4,15.4477153 4.44771525,15 5,15 L13,15 C13.5522847,15 14,15.4477153 14,16 C14,16.5522847 13.5522847,17 13,17 Z" id="Path"></path>
                <path d="M7,9 L5,9 C4.44771525,9 4,8.55228475 4,8 C4,7.44771525 4.44771525,7 5,7 L7,7 C7.55228475,7 8,7.44771525 8,8 C8,8.55228475 7.55228475,9 7,9 Z" id="Path"></path>
            </g>
        </g>
    </g>
</svg>