<?xml version="1.0" encoding="UTF-8"?>
<svg width="22px" height="22px" viewBox="0 0 22 22" version="1.1" xmlns="http://www.w3.org/2000/svg" xmlns:xlink="http://www.w3.org/1999/xlink">
    <!-- Generator: Sketch 64 (93537) - https://sketch.com -->
    <title>ic_web</title>
    <desc>Created with Sketch.</desc>
    <g id="Intake-type" stroke="none" stroke-width="1" fill="none" fill-rule="evenodd">
        <g id="ic_web" fill="#162E51" fill-rule="nonzero">
            <g id="globe">
                <path d="M11,22 C4.92486775,22 0,17.0751322 0,11 C0,4.92486775 4.92486775,0 11,0 C17.0751322,0 22,4.92486775 22,11 C22,13.9173814 20.8410748,16.7152744 18.7781746,18.7781746 C16.7152744,20.8410748 13.9173814,22 11,22 Z M11,2 C6.02943725,2 2,6.02943725 2,11 C2,15.9705627 6.02943725,20 11,20 C15.9705627,20 20,15.9705627 20,11 C20,6.02943725 15.9705627,2 11,2 Z" id="Shape"></path>
                <path d="M21,12 L1,12 C0.44771525,12 0,11.5522847 0,11 C0,10.4477153 0.44771525,10 1,10 L21,10 C21.5522847,10 22,10.4477153 22,11 C22,11.5522847 21.5522847,12 21,12 Z" id="Path"></path>
                <path d="M11,22 C10.719358,22.0018991 10.4508345,21.8857808 10.26,21.68 C7.59218014,18.7541852 6.07826198,14.9587284 6,11 C6.07885539,7.04436932 7.59285736,3.25225639 10.26,0.33 C10.4490592,0.120520558 10.7178218,0.000666963756 11,0 L11,0 C11.2821782,0.000666963756 11.5509408,0.120520558 11.74,0.33 C14.4087171,3.25126941 15.9229659,7.04400054 16,11 C15.9247433,14.9652916 14.4107467,18.768053 11.74,21.7 C11.5456913,21.8984156 11.2776226,22.0070921 11,22 Z M11,2.55 C9.11804373,4.97115737 8.06609126,7.93415683 8,11 C8.06682044,14.0596109 9.11892706,17.0160305 11,19.43 C12.8779173,17.0142999 13.9296401,14.058959 14,11 C13.9374653,7.93350576 12.8851271,4.96942002 11,2.55 Z" id="Shape"></path>
            </g>
        </g>
    </g>
</svg>