<?xml version="1.0" encoding="UTF-8"?>
<svg width="17px" height="16px" viewBox="0 0 17 16" version="1.1" xmlns="http://www.w3.org/2000/svg" xmlns:xlink="http://www.w3.org/1999/xlink">
    <!-- Generator: Sketch 61 (89581) - https://sketch.com -->
    <title>coffee</title>
    <desc>Created with Sketch.</desc>
    <g id="Jacklynn" stroke="none" stroke-width="1" fill="none" fill-rule="evenodd">
        <g id="Filter-less-than-15" transform="translate(-1082.000000, -601.000000)" fill="#2E2E2A" fill-rule="nonzero">
            <g id="coffee" transform="translate(1082.000000, 601.000000)">
                <g>
                    <path d="M13.0909091,12.3636364 L12.3636364,12.3636364 C11.9619747,12.3636364 11.6363636,12.0380253 11.6363636,11.6363636 C11.6363636,11.234702 11.9619747,10.9090909 12.3636364,10.9090909 L13.0909091,10.9090909 C14.295894,10.9090909 15.2727273,9.93225764 15.2727273,8.72727273 C15.2727273,7.52228782 14.295894,6.54545455 13.0909091,6.54545455 L12.3636364,6.54545455 C11.9619747,6.54545455 11.6363636,6.21984345 11.6363636,5.81818182 C11.6363636,5.41652018 11.9619747,5.09090909 12.3636364,5.09090909 L13.0909091,5.09090909 C15.0992173,5.09090909 16.7272727,6.71896455 16.7272727,8.72727273 C16.7272727,10.7355809 15.0992173,12.3636364 13.0909091,12.3636364 Z" id="Path"></path>
                    <path d="M9.45454545,16 L3.63636364,16 C2.67194004,16 1.74701672,15.6168842 1.06506625,14.9349337 C0.383115783,14.2529833 0,13.32806 0,12.3636364 L0,5.81818182 C0,5.41652018 0.325611091,5.09090909 0.727272727,5.09090909 L12.3636364,5.09090909 C12.765298,5.09090909 13.0909091,5.41652018 13.0909091,5.81818182 L13.0909091,12.3636364 C13.0909091,14.3719445 11.4628536,16 9.45454545,16 Z M1.45454545,6.54545455 L1.45454545,12.3636364 C1.45454545,13.5686213 2.43137873,14.5454545 3.63636364,14.5454545 L9.45454545,14.5454545 C10.6595304,14.5454545 11.6363636,13.5686213 11.6363636,12.3636364 L11.6363636,6.54545455 L1.45454545,6.54545455 Z" id="Shape"></path>
                    <path d="M3.63636364,3.63636364 C3.234702,3.63636364 2.90909091,3.31075255 2.90909091,2.90909091 L2.90909091,0.727272727 C2.90909091,0.325611091 3.234702,0 3.63636364,0 C4.03802527,0 4.36363636,0.325611091 4.36363636,0.727272727 L4.36363636,2.90909091 C4.36363636,3.31075255 4.03802527,3.63636364 3.63636364,3.63636364 Z" id="Path"></path>
                    <path d="M6.54545455,3.63636364 C6.14379291,3.63636364 5.81818182,3.31075255 5.81818182,2.90909091 L5.81818182,0.727272727 C5.81818182,0.325611091 6.14379291,0 6.54545455,0 C6.94711618,0 7.27272727,0.325611091 7.27272727,0.727272727 L7.27272727,2.90909091 C7.27272727,3.31075255 6.94711618,3.63636364 6.54545455,3.63636364 Z" id="Path"></path>
                    <path d="M9.45454545,3.63636364 C9.05288382,3.63636364 8.72727273,3.31075255 8.72727273,2.90909091 L8.72727273,0.727272727 C8.72727273,0.325611091 9.05288382,0 9.45454545,0 C9.85620709,0 10.1818182,0.325611091 10.1818182,0.727272727 L10.1818182,2.90909091 C10.1818182,3.31075255 9.85620709,3.63636364 9.45454545,3.63636364 Z" id="Path"></path>
                </g>
            </g>
        </g>
    </g>
</svg>