<?xml version="1.0" encoding="UTF-8"?>
<svg width="24px" height="21px" viewBox="0 0 24 21" version="1.1" xmlns="http://www.w3.org/2000/svg" xmlns:xlink="http://www.w3.org/1999/xlink">
    <!-- Generator: Sketch 61 (89581) - https://sketch.com -->
    <title>sliders</title>
    <desc>Created with Sketch.</desc>
    <g id="Jacklynn" stroke="none" stroke-width="1" fill="none" fill-rule="evenodd">
        <g id="Filter-no-records" transform="translate(-1139.000000, -351.000000)" fill="#194480" fill-rule="nonzero">
            <g id="sliders" transform="translate(1139.000000, 351.000000)">
                <g id="Path">
                    <path d="M4,20.2105263 C3.44771525,20.2105263 3,19.7580983 3,19.2 L3,12.1263158 C3,11.5682175 3.44771525,11.1157895 4,11.1157895 C4.55228475,11.1157895 5,11.5682175 5,12.1263158 L5,19.2 C5,19.7580983 4.55228475,20.2105263 4,20.2105263 Z"></path>
                    <path d="M4,9.09473684 C3.44771525,9.09473684 3,8.6423088 3,8.08421053 L3,1.01052632 C3,0.452428042 3.44771525,0 4,0 C4.55228475,0 5,0.452428042 5,1.01052632 L5,8.08421053 C5,8.6423088 4.55228475,9.09473684 4,9.09473684 Z"></path>
                    <path d="M12,20.2105263 C11.4477153,20.2105263 11,19.7580983 11,19.2 L11,10.1052632 C11,9.54716488 11.4477153,9.09473684 12,9.09473684 C12.5522847,9.09473684 13,9.54716488 13,10.1052632 L13,19.2 C13,19.7580983 12.5522847,20.2105263 12,20.2105263 Z"></path>
                    <path d="M12,7.07368421 C11.4477153,7.07368421 11,6.62125617 11,6.06315789 L11,1.01052632 C11,0.452428042 11.4477153,0 12,0 C12.5522847,0 13,0.452428042 13,1.01052632 L13,6.06315789 C13,6.62125617 12.5522847,7.07368421 12,7.07368421 Z"></path>
                    <path d="M20,20.2105263 C19.4477153,20.2105263 19,19.7580983 19,19.2 L19,14.1473684 C19,13.5892701 19.4477153,13.1368421 20,13.1368421 C20.5522847,13.1368421 21,13.5892701 21,14.1473684 L21,19.2 C21,19.7580983 20.5522847,20.2105263 20,20.2105263 Z"></path>
                    <path d="M20,11.1157895 C19.4477153,11.1157895 19,10.6633614 19,10.1052632 L19,1.01052632 C19,0.452428042 19.4477153,0 20,0 C20.5522847,0 21,0.452428042 21,1.01052632 L21,10.1052632 C21,10.6633614 20.5522847,11.1157895 20,11.1157895 Z"></path>
                    <path d="M7,13.1368421 L1,13.1368421 C0.44771525,13.1368421 0,12.6844141 0,12.1263158 C0,11.5682175 0.44771525,11.1157895 1,11.1157895 L7,11.1157895 C7.55228475,11.1157895 8,11.5682175 8,12.1263158 C8,12.6844141 7.55228475,13.1368421 7,13.1368421 Z"></path>
                    <path d="M15,7.07368421 L9,7.07368421 C8.44771525,7.07368421 8,6.62125617 8,6.06315789 C8,5.50505962 8.44771525,5.05263158 9,5.05263158 L15,5.05263158 C15.5522847,5.05263158 16,5.50505962 16,6.06315789 C16,6.62125617 15.5522847,7.07368421 15,7.07368421 Z"></path>
                    <path d="M23,15.1578947 L17,15.1578947 C16.4477153,15.1578947 16,14.7054667 16,14.1473684 C16,13.5892701 16.4477153,13.1368421 17,13.1368421 L23,13.1368421 C23.5522847,13.1368421 24,13.5892701 24,14.1473684 C24,14.7054667 23.5522847,15.1578947 23,15.1578947 Z"></path>
                </g>
            </g>
        </g>
    </g>
</svg>