<?xml version="1.0" encoding="UTF-8"?>
<svg width="24px" height="24px" viewBox="0 0 24 24" version="1.1" xmlns="http://www.w3.org/2000/svg" xmlns:xlink="http://www.w3.org/1999/xlink">
    <title>globe</title>
    <g id="Icons" stroke="none" stroke-width="1" fill="none" fill-rule="evenodd">
        <g id="globe" fill="#000000" fill-rule="nonzero">
            <g transform="translate(1.000000, 1.000000)">
                <path d="M11,22 C4.92486775,22 0,17.0751322 0,11 C0,4.92486775 4.92486775,0 11,0 C17.0751322,0 22,4.92486775 22,11 C22,13.9173814 20.8410748,16.7152744 18.7781746,18.7781746 C16.7152744,20.8410748 13.9173814,22 11,22 Z M11,2 C6.02943725,2 2,6.02943725 2,11 C2,15.9705627 6.02943725,20 11,20 C15.9705627,20 20,15.9705627 20,11 C20,6.02943725 15.9705627,2 11,2 Z" id="Shape"></path>
                <path d="M20.0909091,9 L1.90909091,9 C1.40701386,9 1,8.55228475 1,8 C1,7.44771525 1.40701386,7 1.90909091,7 L20.0909091,7 C20.5929861,7 21,7.44771525 21,8 C21,8.55228475 20.5929861,9 20.0909091,9 Z" id="Path"></path>
                <path d="M20.0909091,15 L1.90909091,15 C1.40701386,15 1,14.5522847 1,14 C1,13.4477153 1.40701386,13 1.90909091,13 L20.0909091,13 C20.5929861,13 21,13.4477153 21,14 C21,14.5522847 20.5929861,15 20.0909091,15 Z" id="Path-Copy"></path>
                <path d="M11,22 C10.719358,22.0018991 10.4508345,21.8857808 10.26,21.68 C7.59218014,18.7541852 6.07826198,14.9587284 6,11 C6.07885539,7.04436932 7.59285736,3.25225639 10.26,0.33 C10.4490592,0.120520558 10.7178218,0.000666963756 11,0 L11,0 C11.2821782,0.000666963756 11.5509408,0.120520558 11.74,0.33 C14.4087171,3.25126941 15.9229659,7.04400054 16,11 C15.9247433,14.9652916 14.4107467,18.768053 11.74,21.7 C11.5456913,21.8984156 11.2776226,22.0070921 11,22 Z M11,2.55 C9.11804373,4.97115737 8.06609126,7.93415683 8,11 C8.06682044,14.0596109 9.11892706,17.0160305 11,19.43 C12.8779173,17.0142999 13.9296401,14.058959 14,11 C13.9374653,7.93350576 12.8851271,4.96942002 11,2.55 Z" id="Shape"></path>
            </g>
        </g>
    </g>
</svg>