<?xml version="1.0" encoding="UTF-8"?>
<svg width="14px" height="14px" viewBox="0 0 14 14" version="1.1" xmlns="http://www.w3.org/2000/svg" xmlns:xlink="http://www.w3.org/1999/xlink">
    <title>ic_external-link-gold</title>
    <g id="Page-1" stroke="none" stroke-width="1" fill="none" fill-rule="evenodd">
        <g id="CRT-Landing_EOD-5.12@2x" transform="translate(-978.000000, -986.000000)" fill="#162E51" fill-rule="nonzero">
            <g id="ic_external-link-gold" transform="translate(978.000000, 986.000000)">
                <g id="external-link">
                    <path d="M9.33333333,14 L2,14 C0.8954305,14 0,13.1045695 0,12 L0,4.66666667 C0,3.56209717 0.8954305,2.66666667 2,2.66666667 L6,2.66666667 C6.36818983,2.66666667 6.66666667,2.9651435 6.66666667,3.33333333 C6.66666667,3.70152317 6.36818983,4 6,4 L2,4 C1.63181017,4 1.33333333,4.29847683 1.33333333,4.66666667 L1.33333333,12 C1.33333333,12.3681898 1.63181017,12.6666667 2,12.6666667 L9.33333333,12.6666667 C9.70152317,12.6666667 10,12.3681898 10,12 L10,8 C10,7.63181017 10.2984768,7.33333333 10.6666667,7.33333333 C11.0348565,7.33333333 11.3333333,7.63181017 11.3333333,8 L11.3333333,12 C11.3333333,13.1045695 10.4379028,14 9.33333333,14 Z" id="Path"></path>
                    <path d="M12.6666667,6 C12.2984768,6 12,5.70152317 12,5.33333333 L12,2 L8.66666667,2 C8.29847683,2 8,1.70152317 8,1.33333333 C8,0.9651435 8.29847683,0.666666667 8.66666667,0.666666667 L12.6666667,0.666666667 C13.0348565,0.666666667 13.3333333,0.9651435 13.3333333,1.33333333 L13.3333333,5.33333333 C13.3333333,5.70152317 13.0348565,6 12.6666667,6 Z" id="Path"></path>
                    <path d="M5.33333333,9.33334449 C5.15613134,9.33435784 4.98581255,9.26479101 4.86,9.14 C4.73379157,9.01482227 4.66280112,8.84442502 4.66280112,8.66666667 C4.66280112,8.48890831 4.73379157,8.31851107 4.86,8.19333333 L12.1933333,0.86 C12.4547481,0.598585218 12.8785852,0.598585218 13.14,0.86 C13.4014148,1.12141478 13.4014148,1.54525189 13.14,1.80666667 L5.80666667,9.14 C5.68085411,9.26479101 5.51053532,9.33435784 5.33333333,9.33334449 Z" id="Path"></path>
                </g>
            </g>
        </g>
    </g>
</svg>
