<?xml version="1.0" encoding="UTF-8"?>
<svg width="16px" height="16px" viewBox="0 0 16 16" version="1.1" xmlns="http://www.w3.org/2000/svg" xmlns:xlink="http://www.w3.org/1999/xlink">
    <title>ic_help-circle</title>
    <g id="Symbols" stroke="none" stroke-width="1" fill="none" fill-rule="evenodd">
        <g id="CRT_Footer_Desktop" transform="translate(-289.000000, -603.000000)" fill="#2e2e2a" fill-rule="nonzero">
            <g id="ic_help-circle" transform="translate(289.000000, 603.000000)">
                <path d="M8,0 C3.581722,0 0,3.581722 0,8 C0,12.418278 3.581722,16 8,16 C12.418278,16 16,12.418278 16,8 C16,3.581722 12.418278,0 8,0 Z M8,1.45454545 C11.6149547,1.45454545 14.5454545,4.38504527 14.5454545,8 C14.5454545,11.6149547 11.6149547,14.5454545 8,14.5454545 C4.38504527,14.5454545 1.45454545,11.6149547 1.45454545,8 C1.45454545,4.38504527 4.38504527,1.45454545 8,1.45454545 Z" id="Oval"></path>
                <path d="M5.1332161,5.57912291 C5.61414512,4.24183966 7.01099883,3.43882549 8.43940276,3.67848384 C9.86780583,3.91814205 10.9112359,5.13058717 10.9090843,6.54711715 C10.9090843,7.47723141 10.3457196,8.21197426 9.46365283,8.78717549 C8.98148264,9.10160167 8.5077802,9.30753788 8.17190518,9.41705097 C7.78259673,9.5439862 7.36180103,9.33818318 7.23203169,8.95737706 C7.11153159,8.60377137 7.28433907,8.22360891 7.62134279,8.06947265 L7.8406354,7.98667049 C7.88210985,7.9701666 7.93010718,7.95029315 7.98346027,7.92709856 C8.2086767,7.82918854 8.43361563,7.71184128 8.63932976,7.57769382 C9.15045584,7.24438532 9.42301023,6.8889165 9.42301105,6.54603603 C9.42408894,5.83722899 8.90237308,5.23100547 8.18817112,5.11117629 C7.51364704,4.99800429 6.85319397,5.34985137 6.57931978,5.95257261 L6.53507779,6.06149583 C6.39890012,6.44015485 5.97468889,6.63913578 5.58757547,6.50593218 C5.20046205,6.37272858 4.99703843,5.95778193 5.1332161,5.57912291 Z" id="Path"></path>
                <path d="M8.36727273,11.2727273 C8.76893436,11.2727273 9.09454545,11.5983384 9.09454545,12 C9.09454545,12.3729715 8.81378895,12.6803688 8.45208809,12.7223798 L8.36,12.7272727 C7.95833836,12.7272727 7.63272727,12.4016616 7.63272727,12 C7.63272727,11.6270285 7.91348377,11.3196312 8.27518464,11.2776202 L8.36727273,11.2727273 Z" id="Path"></path>
            </g>
        </g>
    </g>
</svg>
