<?xml version="1.0" encoding="UTF-8"?>
<svg width="31px" height="31px" viewBox="0 0 31 31" version="1.1" xmlns="http://www.w3.org/2000/svg" xmlns:xlink="http://www.w3.org/1999/xlink">
    <title>ic_person-check</title>
    <g id="Page-1" stroke="none" stroke-width="1" fill="none" fill-rule="evenodd">
        <g id="CRT-Landing_EOD-5.12@2x" transform="translate(-888.000000, -2470.000000)">
            <g id="ic_person-check" transform="translate(888.000000, 2470.000000)">
                <circle id="circle" fill="#E1E7F1" style="mix-blend-mode: multiply;" cx="15.5" cy="15.5" r="15.5"></circle>
                <g id="icon" transform="translate(8.000000, 8.000000)" fill="#162E51" fill-rule="nonzero">
                    <path d="M12.6666667,16 C12.2294412,16 11.875,15.6418278 11.875,15.2 L11.875,13.6 C11.875,12.2745166 10.8116763,11.2 9.5,11.2 L3.95833333,11.2 C2.64665705,11.2 1.58333333,12.2745166 1.58333333,13.6 L1.58333333,15.2 C1.58333333,15.6418278 1.22889209,16 0.791666667,16 C0.35444124,16 0,15.6418278 0,15.2 L0,13.6 C0,11.390861 1.7722062,9.6 3.95833333,9.6 L9.5,9.6 C11.6861271,9.6 13.4583333,11.390861 13.4583333,13.6 L13.4583333,15.2 C13.4583333,15.6418278 13.1038921,16 12.6666667,16 Z" id="Path-Copy"></path>
                    <path d="M6.33333333,8 C4.1472062,8 2.375,6.209139 2.375,4 C2.375,1.790861 4.1472062,0 6.33333333,0 C8.51946047,0 10.2916667,1.790861 10.2916667,4 C10.2916667,6.209139 8.51946047,8 6.33333333,8 L6.33333333,8 Z M6.33333333,1.6 C5.02165705,1.6 3.95833333,2.6745166 3.95833333,4 C3.95833333,5.3254834 5.02165705,6.4 6.33333333,6.4 C7.64500961,6.4 8.70833333,5.3254834 8.70833333,4 C8.70833333,2.6745166 7.64500961,1.6 6.33333333,1.6 Z" id="Shape-Copy"></path>
                    <path d="M15.0424869,9.6 L15.0424869,9.6 C14.8322752,9.60121519 14.6302289,9.51779211 14.4809796,9.36814537 L12.8992687,7.76924018 C12.6986615,7.56645218 12.6203154,7.27088223 12.6937428,6.99386867 C12.7671701,6.71685511 12.9812155,6.50048289 13.2552501,6.42625733 C13.5292847,6.35203177 13.8216762,6.4312295 14.0222834,6.6340175 L15.0424869,7.67330587 L17.6444013,5.03511232 C17.9545133,4.72162923 18.4573041,4.72162923 18.767416,5.03511232 C19.077528,5.3485954 19.077528,5.85685191 18.767416,6.170335 L15.6039943,9.36814537 C15.454745,9.51779211 15.2526987,9.60121519 15.0424869,9.6 Z" id="Path-Copy-2"></path>
                </g>
            </g>
        </g>
    </g>
</svg>