<?xml version="1.0" encoding="UTF-8"?>
<svg width="32px" height="32px" viewBox="0 0 32 32" version="1.1" xmlns="http://www.w3.org/2000/svg" xmlns:xlink="http://www.w3.org/1999/xlink">
    <title>ic_phone-circle</title>
    <g id="Page-1" stroke="none" stroke-width="1" fill="none" fill-rule="evenodd">
        <g id="CRT-Landing_EOD-5.12@2x" transform="translate(-704.000000, -886.000000)">
            <g id="ic_phone-circle" transform="translate(704.000000, 886.000000)">
                <circle id="Oval" fill="#D0DAE9" cx="16" cy="16" r="16"></circle>
                <path d="M22.5055133,25.0001187 L22.2839733,25.0001187 C19.6258266,24.7073425 17.072286,23.7996811 14.8254585,22.3489737 C12.7455839,21.0235775 10.9811522,19.2585669 9.65619075,17.1780098 C8.20049834,14.9308069 7.29529301,12.3717785 7.01412059,9.70883983 C6.94266502,9.05315177 7.1444955,8.39698749 7.57207329,7.89489854 C7.98439821,7.38043632 8.58921906,7.05716621 9.24593141,7.00011867 L11.9536431,7.00011867 C13.1891769,6.98807544 14.2422758,7.89403772 14.4151991,9.11787253 C14.5133011,9.84680839 14.6921807,10.5625616 14.9485363,11.2519211 C15.2838648,12.1513668 15.0660804,13.1637559 14.3905836,13.8456109 L13.7998101,14.4365782 C14.7652641,15.9523123 16.050754,17.2382239 17.5659909,18.2039947 L18.1485591,17.6130274 C18.8317672,16.934001 19.8480943,16.7159161 20.7496034,17.0548917 C21.4359366,17.3112634 22.1487298,17.4902084 22.8747467,17.5884038 C24.101443,17.7576403 25.0115016,18.812108 25,20.0507675 L25,22.5131313 C25,23.8730572 23.897814,24.975495 22.5383341,24.975495 L22.5055133,25.0001187 Z M12.13235,9.00011867 L9.78005309,9.00011867 C9.54823557,9.00584286 9.32935974,9.10774574 9.1762969,9.28121181 C9.04546367,9.44106996 8.98345063,9.64597852 9.00379513,9.85120623 C9.23600364,12.1360498 10.0041595,14.3345779 11.2463181,16.2694996 C12.3928767,18.0594383 13.9182137,19.5783855 15.7156822,20.720141 C17.6528361,21.9653525 19.853792,22.7458243 22.1452936,23.0001187 L22.2237035,23.0001187 C22.4305247,22.9971851 22.6278042,22.9129909 22.7725728,22.7658744 C22.9174305,22.6204394 22.9990953,22.4241431 23,22.2193044 L23,19.8768616 C23.003835,19.4849459 22.7153463,19.1508991 22.3256364,19.0960473 C21.5224676,18.9866981 20.7336928,18.7903304 19.9733395,18.5104366 C19.6864301,18.4004964 19.361472,18.467658 19.1421946,18.6822157 L18.1463889,19.6348091 C17.8965649,19.882251 17.5116714,19.9333552 17.2054702,19.7597394 C15.1178007,18.5782239 13.3894047,16.8570684 12.2029189,14.7781443 C12.0285728,14.4732258 12.0798919,14.0899447 12.3283747,13.8411672 L13.3241804,12.8495331 C13.5212765,12.6405386 13.5874989,12.3407888 13.4966821,12.0687188 C13.217023,11.3111171 13.019868,10.525801 12.9086079,9.72627594 C12.8799562,9.31951351 12.5418155,9.00319686 12.13235,9.00011867 Z" id="Shape" fill="#162E51" fill-rule="nonzero"></path>
            </g>
        </g>
    </g>
</svg>