<?xml version="1.0" encoding="UTF-8"?>
<svg width="14px" height="17px" viewBox="0 0 14 17" version="1.1" xmlns="http://www.w3.org/2000/svg" xmlns:xlink="http://www.w3.org/1999/xlink">
    <!-- Generator: Sketch 63.1 (92452) - https://sketch.com -->
    <title>ic_paper</title>
    <desc>Created with Sketch.</desc>
    <g id="Public---Key-Pages" stroke="none" stroke-width="1" fill="none" fill-rule="evenodd">
        <g id="ic_paper" fill="#162E51" fill-rule="nonzero">
            <g id="file-text">
                <path d="M11.6666667,17 L2.33333333,17 C1.04466892,17 0,15.9621146 0,14.6818182 L0,2.31818182 C0,1.03788535 1.04466892,-1.29325796e-05 2.33333333,-1.29325796e-05 L8.55555556,-1.29325796e-05 C8.76229121,-0.00118749544 8.96099646,0.0794467843 9.10777778,0.224090909 L13.7744444,4.86045455 C13.920034,5.00628273 14.0011953,5.20369769 14.000013,5.40909091 L14.000013,14.6818182 C14.000013,15.9621146 12.9553311,17 11.6666667,17 Z M2.33333333,1.54545455 C1.90377853,1.54545455 1.55555556,1.89141633 1.55555556,2.31818182 L1.55555556,14.6818182 C1.55555556,15.1085837 1.90377853,15.4545455 2.33333333,15.4545455 L11.6666667,15.4545455 C12.0962215,15.4545455 12.4444444,15.1085837 12.4444444,14.6818182 L12.4444444,5.72590909 L8.23666667,1.54545455 L2.33333333,1.54545455 Z" id="Shape"></path>
                <path d="M13.2222222,6.18181818 L8.55555556,6.18181818 C8.12600075,6.18181818 7.77777778,5.8358564 7.77777778,5.40909091 L7.77777778,0.772727273 C7.77777778,0.345961784 8.12600075,0 8.55555556,0 C8.98511036,0 9.33333333,0.345961784 9.33333333,0.772727273 L9.33333333,4.63636364 L13.2222222,4.63636364 C13.651777,4.63636364 14,4.98232542 14,5.40909091 C14,5.8358564 13.651777,6.18181818 13.2222222,6.18181818 Z" id="Path"></path>
            </g>
        </g>
    </g>
</svg>