<?xml version="1.0" encoding="UTF-8"?>
<svg width="24px" height="24px" viewBox="0 0 24 24" version="1.1" xmlns="http://www.w3.org/2000/svg" xmlns:xlink="http://www.w3.org/1999/xlink">
    <title>mail</title>
    <g id="Icons" stroke="none" stroke-width="1" fill="none" fill-rule="evenodd">
        <g id="mail" fill="#162e51" fill-rule="nonzero">
            <g transform="translate(0.000000, 3.000000)">
                <path d="M20,18 L4,18 C2.34314575,18 1,16.6568542 1,15 L1,3 C1,1.34314575 2.34314575,0 4,0 L20,0 C21.6568542,0 23,1.34314575 23,3 L23,15 C23,16.6568542 21.6568542,18 20,18 Z M4,2 C3.44771525,2 3,2.44771525 3,3 L3,15 C3,15.5522847 3.44771525,16 4,16 L20,16 C20.5522847,16 21,15.5522847 21,15 L21,3 C21,2.44771525 20.5522847,2 20,2 L4,2 Z" id="Shape"></path>
                <path d="M12,11 C11.796092,10.9995172 11.5972045,10.9367107 11.43,10.82 L1.43,3.82 C1.1159015,3.62505713 0.934973566,3.2727322 0.959545386,2.9038734 C0.984117206,2.53501459 1.21017986,2.20980166 1.54736075,2.05824428 C1.88454164,1.90668691 2.27782932,1.95351185 2.57,2.18 L12,8.78 L21.43,2.18 C21.7221707,1.95351185 22.1154584,1.90668691 22.4526393,2.05824428 C22.7898201,2.20980166 23.0158828,2.53501459 23.0404546,2.9038734 C23.0650264,3.2727322 22.8840985,3.62505713 22.57,3.82 L12.57,10.82 C12.4027955,10.9367107 12.203908,10.9995172 12,11 Z" id="Path"></path>
            </g>
        </g>
    </g>
</svg>
