<?xml version="1.0" encoding="UTF-8"?>
<svg width="8px" height="14px" viewBox="0 0 8 14" version="1.1" xmlns="http://www.w3.org/2000/svg" xmlns:xlink="http://www.w3.org/1999/xlink">
    <!-- Generator: Sketch 59.1 (86144) - https://sketch.com -->
    <title>ic-backarrow</title>
    <desc>Created with Sketch.</desc>
    <g id="Interaction" stroke="none" stroke-width="1" fill="none" fill-rule="evenodd">
        <g id="ic-backarrow" transform="translate(-8.000000, -5.000000)">
            <rect id="Rectangle" x="0" y="0" width="24" height="24"></rect>
            <path d="M14.9956576,19 C14.7302393,19.0015196 14.4751309,18.8971999 14.2866853,18.7100683 L8.29537016,12.7118286 C8.10633154,12.524117 8,12.2685962 8,12.0020368 C8,11.7354775 8.10633154,11.4799567 8.29537016,11.2922451 L14.2866853,5.29400535 C14.6782398,4.90199822 15.3130753,4.90199822 15.7046298,5.29400535 C16.0961844,5.68601249 16.0961844,6.32158163 15.7046298,6.71358877 L10.4123015,12.0020368 L15.7046298,17.2904849 C15.8936685,17.4781964 16,17.7337173 16,18.0002766 C16,18.266836 15.8936685,18.5223568 15.7046298,18.7100683 C15.5161842,18.8971999 15.2610758,19.0015196 14.9956576,19 Z" id="Path" fill="#1A4480" fill-rule="nonzero"></path>
        </g>
    </g>
</svg>