<?xml version="1.0" encoding="UTF-8"?>
<svg width="24px" height="24px" viewBox="0 0 24 24" version="1.1" xmlns="http://www.w3.org/2000/svg" xmlns:xlink="http://www.w3.org/1999/xlink">
    <title>phone</title>
    <g id="Icons" stroke="none" stroke-width="1" fill="none" fill-rule="evenodd">
        <g id="phone" fill="#162e51" fill-rule="nonzero">
            <g transform="translate(1.000000, 1.000000)" id="Shape">
                <path d="M19,21.93 L18.73,21.93 C15.4904068,21.5732987 12.3783015,20.4674571 9.64,18.7 C7.10517095,17.0852148 4.9547852,14.934829 3.34,12.4 C1.56588755,9.66213932 0.462676445,6.5443688 0.12,3.3 C0.0329141488,2.50114801 0.278893286,1.70171581 0.8,1.09 C1.30251741,0.463209316 2.03963754,0.0693559114 2.84,-0.000147478414 L6.14,-0.000147478414 C7.64579608,-0.0148202357 8.92925127,1.08895122 9.14,2.58 C9.2595609,3.46809283 9.47756888,4.34012473 9.79,5.18 C10.1986787,6.27583206 9.93325584,7.50926778 9.11,8.34 L8.39,9.06 C9.56663871,10.9066817 11.1333183,12.4733613 12.98,13.65 L13.69,12.93 C14.5226539,12.1027139 15.7612937,11.837012 16.86,12.25 C17.6964626,12.5623484 18.5651731,12.7803645 19.45,12.9 C20.9450254,13.1061878 22.0541513,14.3908896 22.0401339,15.9 L22.0401339,18.9 C22.0401339,20.5568542 20.6968542,21.9 19.04,21.9 L19,21.93 Z M6.13,2 L3.13,2 C2.83435171,2.00733106 2.55520858,2.13783954 2.36,2.36 C2.19314195,2.56473262 2.11405366,2.82716195 2.14,3.09 C2.43614695,6.01623175 3.41581398,8.83191809 5,11.31 C6.4622626,13.6024 8.40759998,15.5477374 10.7,17.01 C13.1705478,18.6047602 15.9775352,19.6043216 18.9,19.93 L19,19.93 C19.2637693,19.926243 19.5153695,19.8184143 19.7,19.63 C19.8847442,19.4437394 19.9888954,19.1923399 19.9900492,18.93 L19.9900492,15.93 C19.9949401,15.428068 19.6270163,15.0002496 19.13,14.93 C18.1056793,14.7899549 17.0997159,14.5384641 16.13,14.18 C15.7640904,14.0391981 15.3496553,14.1252129 15.07,14.4 L13.8,15.62 C13.4813871,15.9369024 12.9905135,16.0023522 12.6,15.78 C9.93749226,14.2668162 7.73318381,12.0625077 6.22,9.4 C5.99764782,9.00948649 6.06309763,8.51861291 6.38,8.2 L7.65,6.93 C7.90136643,6.66233779 7.98582309,6.2784439 7.87,5.93 C7.51333692,4.95972877 7.26189551,3.95396313 7.12,2.93 C7.08345903,2.40905354 6.65221156,2.00394228 6.13,2 Z"></path>
            </g>
        </g>
    </g>
</svg>
