<svg xmlns="http://www.w3.org/2000/svg" width="247" height="247" viewBox="0 0 247 247">
<circle fill="#FFFFFF" transform="rotate(-22.359)" cx="67.449" cy="161.17" r="122.5"/>
 <g>
  <path fill="#005288" d="m135.28 14.781-0.68555 4.0977 1.3223 0.22461 0.33398-1.998 4.1641 0.70508-2.2734 13.455-2.332-0.39258-0.16601 1.0098 7.75 1.3125 0.17773-1.0078-2.3125-0.39258 2.2734-13.455 4.1348 0.69531-0.3418 2 1.3223 0.22461 0.69532-4.0957-1.3223-0.22656-0.11719 0.67578-11.408-1.9297 0.11719-0.67578-1.332-0.22656zm-17.826 0.33398v1.0293h1.8516l-0.0293 14.062-1.8516-0.009765v1.0293l6.8398 0.019532v-1.0293h-1.832l0.01953-6.1543h0.66602l3.6465 5.7422c0.83299 1.2936 1.0673 1.4414 2.5078 1.4512l3.0977 0.009766-0.01953-1.0488h-1c-0.48999 0-0.78321-0.22554-1.3418-1.0781l-3.4512-5.3301c2.2932-0.70559 3.4199-2.1173 3.4297-4.3125 0-1.2936-0.38196-2.3429-1.1856-3.1562-0.87219-0.88199-2.0474-1.2051-4.1445-1.2051l-7.2031-0.019532zm-11.604 0.94141-1.4688 0.25391-3.5391 16.445-1.4883 0.25391 0.17578 1.0098 4.9785-0.86328-0.17578-1.0098-1.9219 0.33398 0.88281-4.1641 5.8398-1.0195 2.166 3.6348-1.6856 0.29492 0.17578 1.0098 5.8711-1.0195-0.16602-1.0098-1.0098 0.17578-8.6348-14.326zm16.602 0.43945h1.5391c1.7346 0.0098 2.7344 1.1279 2.7246 3.0879 0 1.9306-1.1563 3.2637-2.832 3.2637l-1.4414-0.009765 0.00976-6.3418zm30.889 2.1367-0.37109 0.96094 1.9102 0.74414-5.0859 13.113-1.9102-0.74609-0.37304 0.96094 5.2617 2.0391 0.37305-0.95117-1.9102-0.74414 3.7324-9.623 1.2949 12.936 9.2793-9.0742-3.8125 9.8281-1.9102-0.74414-0.37305 0.94922 6.7617 2.627 0.37305-0.96094-1.9102-0.74414 5.0859-13.102 1.9004 0.72461 0.37305-0.95117-4.5078-1.7441-8.8594 8.7422-1.2949-12.672-4.0274-1.5684zm-60.406 1.2539c-0.64802-0.012709-1.3388 0.096338-2.0566 0.33398l-7.0176 2.332 0.32422 0.9707 1.7637-0.57813 4.4297 13.348-1.7656 0.57812 0.32422 0.98047 6.7227-2.2246-0.34375-0.99023-1.9688 0.65625-4.3223-13.023 1.3926-0.46094c1.6758-0.54879 2.9096 0.30295 3.625 2.4785 0.68599 2.058 0.18715 3.4904-1.3906 4.0098-0.2058 0.068598-0.32309 0.10732-0.64648 0.13672l0.37109 1.1367c0.63699-0.088196 0.90293-0.14799 1.2949-0.27539 2.7146-0.89178 4.2431-3.7138 3.4102-6.2422-0.65414-1.9992-2.2024-3.1279-4.1465-3.166zm12.074 0.42188 3.332 5.6152-4.7246 0.82422 1.3926-6.4395zm-27.195 4.0977-1.166 0.60742 0.30469 0.60742-8.9375 4.6055 0.46875 0.91211 1.6465-0.85352 6.4395 12.506-1.6465 0.8418 0.4707 0.91211 10.328-5.3223-1.5078-2.8906-1.168 0.59766 0.83398 1.6074-4.7031 2.4297-2.7637-5.3594 3.4688-1.7852 0.7832 1.5195 1.166-0.62695-2.2051-4.2734-1.166 0.62891 0.76562 1.4688-3.4707 1.793-2.6348-5.125 4.5176-2.3223 0.80273 1.5684 1.1465-0.59766-1.7734-3.4492zm99.146 4.4492-0.54882 0.86133 1.5664 1-7.5644 11.848-1.5684-1-0.54883 0.86328 9.8008 6.252 1.7246-2.7246-1.1074-0.70508-0.9707 1.5195-4.459-2.8516 3.2441-5.0781 3.293 2.0977-0.92187 1.4414 1.127 0.68555 2.5879-4.0566-1.127-0.68555-0.90235 1.4004-3.2832-2.1074 3.0977-4.8594 4.2812 2.7324-0.94922 1.4805 1.0976 0.69531 2.0859-3.2734-1.1172-0.70508-0.36133 0.57812-8.4766-5.4082zm-113.98 6.5762c-1.5585 0.083318-3.1267 0.6229-4.5195 1.6445l-6.1348 4.5078 0.60742 0.82422 1.498-1.0977 8.3105 11.309c0.392 0.1568 0.78379 0.30418 1.1758 0.45117l4.0684-2.9883c1.9306-1.421 2.9382-2.9692 3.3008-5.0664 0.3724-2.2834-0.13597-4.5093-1.4688-6.3223-1.6721-2.2723-4.2404-3.4006-6.8379-3.2617zm-1.1055 2.2754c1.8602 0.14451 3.8408 1.2283 5.1699 3.0352 2.2736 3.0771 2.1259 6.7905-0.36328 8.6133l-1.5977 1.1758-7.9375-10.799 1.6758-1.2246c0.86361-0.63576 1.9366-0.88749 3.0527-0.80078zm128.99 0.33984-0.68555 0.75391 1.2949 1.1875-0.26563 1.4492-8.6328 9.4668-1.5-1.3613-0.69531 0.75391 4.0762 3.7148 0.68554-0.76562-1.4199-1.3027 7.1816-7.8789-1.5371 12.514c1.4896-0.3822 3.076-0.81278 4.8008-1.293 0.1372-0.0392 0.27493-0.077989 0.4121-0.11719l6.1445-6.7422 1.5195 1.3809 0.69531-0.75391-4.0566-3.7148-0.69531 0.76367 1.4199 1.3047-6.8887 7.5547 1.7344-13.641-3.5879-3.2734zm-141.49 11.221c-1.0976 3.2437 1.2558 7.5566 4.0684 8.1348-2.4892 0.25479-4.6176 1.5478-5.6074 2.959 1.8718 2.1756 5.6259 4.4392 8.7227 4.498-1.4308 0.96038-3.1659 2.9882-3.7539 4.125 2.6754 1.421 6.9397 2.618 10.223 2.3926-1.3818 1.1074-2.5774 2.5072-3.3516 3.791 2.2246 1.0094 6.5364 2.4794 10.652 2.793-1.519 0.74479-3.6758 3.3323-4.793 4.9199 2.3128 1.0388 7.3212 1.6571 10.428 1.9707-2.2246 1.176-4.5483 3.5083-5.832 5.6152 2.254 1.078 6.4879 2.2836 9.9473 2.1758-1.7052 1.6366-2.8317 3.6261-3.4785 5.5469 2.6166 0.53899 5.3795 0.54838 8.5645 0.11719-1.9404 2.45-2.7139 5.6931-2.9883 8.0156 2.597-0.0784 6.0462-0.66678 8.4766-2.127-0.52919 1.9894-0.41118 4.6652 0.44141 6.5664 1.0192-0.22539 2.2045-0.65577 3.4883-1.3516-0.1666-3.6946-0.33361-7.4677-0.44141-10.574-1.7444-0.89179-3.2716-1.9303-4.9082-3.4199-5.2527-4.7921-6.4976-9.8294-4.9492-15.611 0.92118-3.4397 2.3318-5.1749 1.8516-8.7715-0.27439-2.058-1.7352-3.7139-3.1855-5.1055-3.5181-3.3809-7.6816-5.4693-13.836-7.5371-3.8023-1.274-14.858-4.7131-19.738-9.123zm74.322 1.7637c-13.984 0-27.038 3.9702-38.111 10.83 2.8714 2.2344 4.5767 4.5852 4.9883 7.0352 0.36259 2.1462 0.61763 4.7329-0.62695 8.5156-1.3132 4.0081-2.0396 8.1241 0.91992 12.309 2.94 4.1649 6.7722 5.9588 9.9375 6.5664 4.1453-0.72519 8.7516-1.323 13.328-1.6855 0.5978-1.9404 2.3727-3.6261 4.1367-4.998 2.5774-1.9992 2.008-3.7531 1.3906-5.1152-0.47039-1.0584-1.3919-1.9312-2.7148-2.6172-1.1564-0.59779-5.3988-1.0388-5.291 1.6758-0.686-0.97998-1.2554-2.3124-0.84375-4.0078 0.56839-2.3618 4.44-2.969 5.4004-2.9004-0.74476-0.62719-0.28522-1.6468 1.4102-2.1172 2.058-0.56839 4.0091-0.65642 5.8906-0.60742 3.8807 0.098 4.4872 1.0486 6.457 2.793 2.3715 2.107 5.5094 2.8423 6.7441 1.5684-0.88199 2.0188-3.7046 3.0968-5.5176 2.7832 0.88199 2.793 1.1942 5.2241 1.5078 8.1543 0.147 1.3328 0.42257 3.5756 0.78516 5.4082 5.2037 0.43119 10.418 1.1473 14.965 2.0195 1.8914-0.54879 3.8415-1.657 5.5957-3.6855 1.666-1.9208 3.1936-4.3594 2.5664-10.494-0.1764-1.7248-1.0395-6.1451-0.92187-8.2324 0.2842-4.7137 3.7835-7.7921 9.2812-10.291-11.711-8.1339-25.931-12.906-41.277-12.906zm83.789 1.793-3.293 2.5195 0.81445 1.0684 1.6074-1.2246 2.5566 3.3516-10.838 8.2812-0.55859-0.73633c-0.3136 0.1764-0.62782 0.32374-0.94141 0.46094l4.0176 5.2617 0.81445-0.61719-1.4219-1.8613 10.84-8.2812 2.5469 3.332-1.6074 1.2344 0.82422 1.0684 3.293-2.5176-0.82422-1.0781-0.53906 0.41211-7.0156-9.1934 0.53906-0.41211-0.81445-1.0684zm-7.791 2.3926c-4.8803 4.4197-12.68 5.596-20.873 8.3105-6.1739 2.0384-10.006 3.2229-15.523 7.6328-1.5778 1.2544-3.0768 3.0983-2.9102 6.2734 0.1862 3.5279 0.76336 5.0453 0.85156 9.9746 0.0686 3.5083-1.1452 6.3418-2.6152 8.0078-1.5582 1.764-3.5874 3.3014-5.4004 4.252-0.1078 2.9988-0.24551 6.0073-0.41211 9.5059 1.2838 0.6958 2.93 1.3527 3.9492 1.5781 0.85256-1.8913 0.9706-4.5771 0.4414-6.5664 2.4304 1.4602 5.8796 2.0486 8.4766 2.127-0.27439-2.3226-1.0479-5.5657-2.9883-8.0156 3.185 0.4312 5.9479 0.412 8.5645-0.11719-0.64679-1.9208-1.7734-3.9201-3.4785-5.5469 3.4594 0.1078 7.7031-1.088 9.957-2.1758-1.2838-2.107-3.6075-4.4393-5.832-5.6152 3.1066-0.3136 8.2517-0.91239 10.564-1.9512-1.1172-1.5876-3.4186-4.1946-4.9277-4.9492 4.116-0.30379 8.4278-1.7738 10.652-2.793-0.78399-1.2838-1.9796-2.6836-3.3516-3.791 3.8514-0.2548 7.5454-0.9716 10.221-2.3926-0.58799-1.1368-2.3329-3.1744-3.7539-4.125 8.2417-2.2932 8.3789-6.4185 8.3887-9.623zm-169.19 11.74-0.64648 1.1465 0.63672 0.36133c-0.78399 0.61739-1.2835 1.2061-1.7539 2.0391-1.4602 2.597-0.87146 5.1946 1.4707 6.5078 0.94078 0.51939 1.9401 0.72526 2.8613 0.53906 0.95058-0.1862 1.3136-0.32344 3.8027-1.666 2.3912-1.2642 3.4107-1.4999 4.3711-0.96094 1.1074 0.62719 1.362 2.0188 0.61719 3.3418-0.58799 1.0388-1.2747 1.6075-2.5781 2.1367l-1.5684-0.88281-0.65625 1.1758 3.832 2.1562 0.65625-1.1758-0.76367-0.42188c1.127-0.64679 1.8823-1.4 2.5781-2.6348 1.4014-2.4892 0.68423-5.214-1.7363-6.5762-0.83299-0.47039-1.6454-0.67592-2.5273-0.63672-0.78399 0.039199-1.4998 0.22554-2.1172 0.51953-0.3038 0.1372-1.0388 0.53886-2.2246 1.1562-2.45 1.3034-3.2529 1.4997-4.1055 1.0195-0.99958-0.55859-1.3029-1.8536-0.68555-2.9609 0.441-0.79379 0.97866-1.2441 2.0566-1.8125l1.4707 0.82227 0.64648-1.1465-3.6367-2.0469zm15.848 2.0566c-0.89178 0-1.5977 0.70587-1.5977 1.5977 0 0.89179 0.70587 1.5977 1.5977 1.5977 0.89179 0 1.5977-0.70587 1.5977-1.5977 0-0.88198-0.70587-1.5879-1.5977-1.5977zm169.99 6.4551c-1.0788 0.031696-2.1784 0.27034-3.2441 0.73828-4.2728 1.8718-6.2426 6.6263-4.4394 10.742 1.8032 4.1061 6.6452 5.9089 10.918 4.0371 4.2728-1.8718 6.2035-6.6341 4.4004-10.75-1.3524-3.087-4.3985-4.8627-7.6348-4.7676zm-95.717 1.0762c-1.6863-0.025725-2.3358 0.50946-3.7617 0.31836 0.71539 0.53899 1.1359 0.60759 1.3809 0.55859 0.0196 0.1274 0.25566 0.30452 0.31446 0.35352 0.15679 0.1372 0.23615 0.26511 0.28515 0.41211 0.3234-0.1372 1.1847-0.4912 1.9785-0.77539 0.80359-0.28419 1.9004-0.60742 1.9004-0.60742-0.85994-0.1813-1.5355-0.25119-2.0977-0.25977zm97.68 2.0312c2.0432 0.033209 3.784 0.82227 4.3965 2.2188 0.97999 2.2638-1.1366 5.5652-4.5078 7.0352-3.4005 1.4896-7.27 0.81451-8.2598-1.4395-0.97019-2.2344 1.1463-5.5378 4.5469-7.0273 1.2642-0.55492 2.5983-0.80703 3.8242-0.78711zm-196.26 5.9609-1.6172 5.4297 1.0098 0.30273 0.57812-1.9395 8.7031 2.5977c2.8616 0.85259 4.0283 2.9883 3.1953 5.791-0.2058 0.70559-0.56874 1.3323-1.0195 1.8125-0.98978 1.0094-2.1949 1.1079-4.5566 0.40234l-8.7227-2.5977 0.5293-1.7539-0.98047-0.29297-1.959 6.5449 0.97852 0.29493 0.5293-1.7734 9.457 2.8125c3.2339 0.96038 6.0468-0.88327 7.1738-4.666 0.3626-1.2152 0.44195-2.4393 0.28516-3.6055-0.343-2.2736-1.7251-3.6848-4.3711-4.4688l-8.8008-2.627 0.58789-1.959-1-0.30469zm14.957 1.8398c-0.6353 4.6e-4 -1.2374 0.37721-1.502 1.002-0.35279 0.83299 0.040061 1.7839 0.87305 2.1367 0.83299 0.3528 1.7839-0.038108 2.1367-0.87109 0.343-0.84279-0.049861-1.8035-0.87305-2.1367-0.20825-0.088196-0.423-0.13101-0.63477-0.13086zm190.58 5.334-0.99023 0.25586 0.46094 1.7832-13.631 3.459-0.45117-1.793-1 0.25391 1.6367 6.4395 0.9707-0.25586-0.40235-1.5781 6.252-1.5859 0.96093 3.7812-1.6562 0.42188 0.35351 1.2734 4.6543-1.1856-0.34375-1.2734-1.6055 0.41211-0.96094-3.7832 5.5859-1.4219 1.2441 4.9199-1.7051 0.43164 0.32422 1.2539 3.7617-0.95117-0.32227-1.2832-0.65625 0.17773-2.4805-9.752zm-103.9 4.2344c-8.5651 1e-6 -19.471 1.2239-27.703 3.0957 0.196 5.3899 0.51823 12.22 0.89062 19.002 7.7615-1.6464 18.012-2.8613 26.813-2.8613 8.8002 0 19.061 1.215 26.812 2.8613 0.3724-6.7815 0.6966-13.612 0.89257-19.002-8.2221-1.8718-19.14-3.0957-27.705-3.0957zm0.02929 2.1348 0.39258 1.4414 1.4707-0.078125-1.2363 0.8125 0.52929 1.4023-1.1562-0.9414-1.1465 0.9414 0.5293-1.4023-1.2344-0.8125 1.4707 0.078125 0.38086-1.4414zm-6.9863 0.2168 0.4707 1.4199 1.4688-0.16602-1.1856 0.89258 0.61719 1.3613-1.2051-0.8711-1.0879 1.0078 0.44141-1.4199-1.293-0.74609 1.4785-0.009766 0.29493-1.4688zm13.984 0.009766 0.29297 1.459 1.4805 0.021484-1.2832 0.73437 0.43946 1.4297-1.0859-1.0176-1.207 0.88086 0.60742-1.3711-1.1856-0.89258 1.4707 0.16602 0.4707-1.4102zm-20.943 0.58789 0.54883 1.3906 1.4512-0.23438-1.1367 0.95117 0.68555 1.3223-1.2539-0.80274-1.0391 1.0684 0.37305-1.4512-1.3242-0.67578 1.4805-0.08789 0.21484-1.4805zm27.881 0 0.22656 1.4805 1.4688 0.08789-1.3223 0.67578 0.38281 1.4512-1.0488-1.0684-1.2461 0.8125 0.6875-1.332-1.1465-0.95117 1.459 0.24414 0.53906-1.4004zm-34.789 0.92188 0.59765 1.3613 1.4512-0.30468-1.0977 1 0.73438 1.3047-1.2832-0.76562-0.98047 1.1172 0.30274-1.459-1.3516-0.61914 1.4707-0.15625 0.15625-1.4785zm41.719 0.009766 0.15625 1.4785 1.4707 0.1582-1.3535 0.61719 0.30468 1.459-0.99023-1.1172-1.2832 0.75585 0.74414-1.2949-1.0977-1 1.4414 0.30469 0.60742-1.3613zm40.404 1.8223c4.2041 2.4598 5.6541 5.1241 6.2715 8.1816-3.3614 0.75459-7.8489-0.35267-10.299-2.2734 2.4108 2.107 3.9196 5.41 4.0274 8.8203-3.4692 0.1764-6.6637-1.4508-9.0156-3.8027 1.5092 1.6758 3.4195 5.9387 2.9688 8.957-2.891-0.30379-6.3002-2.1952-8.1426-4.459 1.5288 3.3907 2.2623 6.1261 2.0859 9.1641-2.8812-0.53899-5.0555-1.3528-7.6328-3.8027 1.2446 3.087 1.6943 6.1942 1.4199 8.752-3.3222-1.176-5.5267-2.4891-7.3984-5.625 0.98978 2.7537 1.647 6.3794 0.95117 8.4863-2.8125-0.84279-4.6648-2.529-6.125-5.4004 1.4406 3.0478 1.2634 6.5854 0.77344 8.4277-1.176-0.23519-2.7139-1.0476-3.5371-1.9492-0.0392 0.54879-0.07017 1.088-0.10937 1.6074-0.1372 2.058-0.54846 3.9879-1.2148 5.7617 0.22539 0.2646 0.77529 0.91201 0.80469 0.94141 1.4798 1.5876 3.4983 3.0959 5.0957 3.6055-0.68599 0.098-1.6373 0.69496-2.5879 0.79296 1.0584 1.1956 3.2043 1.462 4.5371 2.8242-1.0388 0.11759-1.2828 0.87157-2.5273 0.73438 2.3912 1.8424 4.5758 1.9116 5.8008 2.0586 0.49 0.0588 2.098 0.20563 3.1172 0.04883 1.4406-0.2254 2.9296 0.49883 3.5176 0.83203 0.88198 0.51939 0.83262 1.7342 0.66602 2.3516-0.1078 0.37239-0.2633 0.81326-0.92969 1.1562-0.3822 0.1078-0.61848 0.13772-0.24609-0.14648 0.3528-0.25479 0.66687-1.8026-0.13672-2.4004-0.58799-0.4312-1.4107-0.78528-2.3809-0.74609-1.078 0.04897-2.7355 0.14871-3.5293 0.07031-0.73496-0.0784-1.1852 0.89117-1.293 1.293-0.2646 0.96038-0.55763 2.1564-1.9492 1.5586-1.7052-0.97999-4.1465-0.90234-6.9395-2.0195 0.4018 0.86239 0.22505 1.5982 0.65625 2.5586-2.4891-0.60759-3.1167-1.8721-5.4883-2.7051 0.39199 0.87218 0.28522 1.5382 0.82422 2.3516-1.9992-0.35279-3.8614-2.1458-6.6445-2.8906-0.0882 0.0294-0.16572 0.04873-0.25391 0.07813-1.0094 0.3038-1.9306 0.59871-2.7734 0.85351 1.9698 2.2344 3.595 4.967 4.3496 8.2793 0 0-1.3815 0.03961-3.4395-0.67578 0.58799 1.8032 0.95107 3.7447 0.98047 5.8223 0 0-1.5589-0.28444-3.6953-1.6074 0.1862 1.96 0.11859 3.9985-0.2832 6.0957 0 0-1.8031-0.73656-3.9297-2.9121-0.245 2.0286-0.75477 4.0866-1.627 6.1152 0 0-1.6367-1.1159-3.3223-3.7227-0.69579 2.0286-1.675 4.0266-3.0078 5.9277 0 0-1.7946-1.8812-3.0098-5.6836-1.6268 2.4304-3.1641 3.4785-3.1641 3.4785-0.87219-2.0384-1.382-4.0965-1.627-6.1152-2.1266 2.1658-3.9297 2.9121-3.9297 2.9121-0.4116-2.0972-0.48112-4.1455-0.29492-6.1055-2.1364 1.323-3.6934 1.6074-3.6934 1.6074 0.0392-2.0678 0.40029-4.0093 0.98828-5.8223-2.058 0.71539-3.4394 0.67578-3.4395 0.67578 0.77419-3.3809 2.989-6.85 4.4688-8.4082-0.72519-0.2254-1.5088-0.46981-2.3516-0.72461-0.0882-0.0294-0.16767-0.04872-0.25586-0.07812-2.7831 0.74479-4.6434 2.5378-6.6426 2.8906 0.52916-0.82318 0.42051-1.4892 0.8125-2.3516-2.3716 0.83298-2.9992 2.0975-5.4785 2.7051 0.4214-0.96039 0.25446-1.6962 0.65625-2.5586-2.303 1.127-5.4678 1.9111-6.8691 2.2051-1.5386 0.3234-1.6369-1.9787-2.1465-2.4883-0.22539-0.2254-1.4591-0.32453-1.9785-0.23633-0.76439 0.1274-2.2637 0.06846-3.3809 0.03906-1.1172-0.0196-1.8827 0.31487-2.4707 0.75586-0.81339 0.59779-0.43092 2.2042-0.078125 2.4688 0.3822 0.28419 0.14782 0.25428-0.23438 0.14649-0.66639-0.343-0.82384-0.78385-0.93164-1.1562-0.1666-0.61739-0.22577-1.8322 0.66602-2.3516 0.57819-0.33319 2.0692-1.0594 3.5098-0.83399 1.0192 0.1568 2.6252 0.01017 3.1152-0.04883 0.48999-0.049 4.0972-0.71427 6.4785-2.5566-1.2446 0.13719-1.5003-0.60698-2.5391-0.73437 1.3328-1.3524 3.4787-1.6188 4.5371-2.8242-0.95058-0.1078-1.7828-0.86095-2.4688-0.96875 2.0972-1.176 3.4987-1.8519 4.9785-3.4394 0.0196-0.0294 0.56757-0.64751 0.79297-0.91211-0.67619-1.7738-1.0874-3.7135-1.2246-5.7812-0.0294-0.4998-0.068223-1.0196-0.10742-1.5488-0.51939 0.56839-1.578 1.1463-3.3027 1.7637-0.80359-1.9502-0.41176-5.6054 0.60742-8.418-1.4602 2.8714-3.1171 4.7432-5.9297 5.5859-0.68599-2.107-0.28275-5.7912 0.70703-8.5449-1.8718 3.1261-3.8712 4.7127-7.1934 5.8789-0.2744-2.5577-0.010135-5.9189 1.2148-9.0156-2.5676 2.4598-4.7536 3.2637-7.625 3.8027-0.1862-3.0379 0.55912-5.7733 2.0879-9.1641-1.8424 2.2638-5.6735 3.8134-8.5645 4.1172 0.2156-2.6264 2.0568-6.2231 3.1348-8.3398-2.7244 1.96-5.6238 3.351-8.7598 3.5274 0.392-2.9792 1.7342-6.2136 4.0273-8.8203-2.695 1.9991-6.8309 3.0874-9.9375 2.666 0.75459-3.2732 2.7639-6.4667 5.4883-8.1719-1.5778 0.30379-4.4397 0.96005-7.7227 0.65625-1.9404 6.4875-2.9979 13.346-3.0273 20.451-1.6464-1.2936-2.7832-1.6172-3.9102-2.7344 0.2156 1.5386 0.4115 2.3722 0.58789 4.2832 0.3038 3.4201 1.596 5.3804 3.7422 6.6152 0.1078 0.97998 0.22605 1.94 0.37305 2.9102-1.5876-1.0192-3.7245-1.6564-6.5469-1.6172 1.715 5.5761 4.1663 5.9884 7.4492 6.5176 0.1078 0.50959 0.22416 1.0197 0.35156 1.5195-1.7444-0.4508-3.8413-0.46128-6.2324 0.19531 1.6464 2.5578 3.9404 4.1153 7.5957 4.6641 0.0098 0.0196 0.009734 0.039 0.019531 0.0586-2.254-0.1862-4.6846 0.14693-6.625 1.1367 2.7734 2.3911 5.4968 3.2939 8.0938 3.0293 0.1274 0.34299 0.26511 0.67654 0.41211 1.0195-2.058 0.5488-3.8617 1.6157-4.8809 2.6055 2.1658 0.68599 4.3817 1.0496 6.3906 0.83399 0.019597 0.049 0.048759 0.09748 0.068359 0.14648-1.176 0.90159-2.2048 2.3514-2.832 4.6348 1.5386-0.392 3.1156-0.49843 4.6934-0.94922 0.3136 0.57819 0.64727 1.1562 0.98047 1.7344-0.83299 1.5778-1.1169 3.5665-0.62695 5.7715 1.323-0.30379 2.4207-0.82385 3.3223-1.4902 0.3136 0.4606 0.62778 0.91249 0.95117 1.3633-0.3332 2.5284 0.2545 5.0761 1.7637 6.7617 0.60759-0.686 1.0864-1.3435 1.5078-1.9805 3.2633-4.9881 1.2947-8.5746 1.3633-11.809 0.0294-0.0686 0.048725-0.12668 0.078125-0.20508 0.26459 3.8514 3.6153 7.6537-0.31445 12.299-0.0784 0.0882-0.14624 0.16572-0.21484 0.25391 13.289 15.425 32.947 25.197 54.908 25.197 31.173 0 57.742-19.689 67.963-47.305l3.293-1.4316-0.24609 1.4316 4.7441-4.1055-6.1445 1.2637 1.3027 0.67578-2.5371 1.0391c0.19583-0.55348 0.35925-1.1215 0.54101-1.6816l-2.8945 2.5332 0.24609-1.4394-18.209 9.1133c-0.0294-0.049-0.04869-0.09745-0.08789-0.15625-0.07839-0.1274-0.17534-0.23598-0.30274-0.33398 0.147-0.1176 0.39148-0.3136 0.70508-0.5586l17.531-8.7793-1.293-0.66797 4.7227-1.0098c0.09109-0.29862 0.19726-0.59086 0.28516-0.89062l3.6055-1.9902-0.11718 1.4512 4.3516-4.5176-5.998 1.8223 1.3535 0.5586-2.8828 1.5879c0.15945-0.58876 0.28381-1.1953 0.42968-1.791l-3.1621 3.4863 0.07813-1.4609-11.652 7.6152c-1.4112 0.70559-2.7927 1.4022-3.998 2.0098 0.78399-0.61739 1.6454-1.2944 2.5176-2.0098l12.682-8.291-1.3633-0.50976 5.1074-1.7148c0.12646-0.54419 0.27548-1.0772 0.39062-1.627l2.7441-1.7441-0.11718 1.4512 4.2637-4.5078-5.9883 1.8418 1.3516 0.54883-2.0957 1.332c0.2352-1.225 0.43102-2.4488 0.60742-3.6934l3.293-2.7539 0.07812 1.459 3.7031-5.0566-5.7031 2.6172 1.4121 0.37305-2.627 2.1953c0.1862-1.5092 0.32391-3.0396 0.41211-4.5781l3.2422-3.5859 0.2754 1.4316 2.9883-5.5078-5.3008 3.3516 1.4492 0.17578-2.5859 2.7734c0.0392-0.95059 0.05859-1.9107 0.05859-2.8711 0-7.2225-1.0595-14.2-3.0293-20.785-3.2829 0.3038-6.5648-0.74503-8.1426-1.0488zm9.3203 38.209c-0.06799 0.29259-0.13774 0.58404-0.20899 0.875l1.0508-1.1582-0.84179 0.2832zm-1.2363 4.6445c-0.13291 0.4357-0.27758 0.86622-0.41797 1.2988l1.8301-1.6016-1.4121 0.30273zm-72.566-41.246 0.42969 1.4297 1.4707-0.12696-1.2148 0.86329 0.57812 1.3711-1.1758-0.90235-1.1172 0.98047 0.48046-1.4102-1.2656-0.77539 1.4805 0.01953 0.33398-1.4492zm6.7324 0.00976 0.33203 1.4492 1.4805-0.02929-1.2637 0.77539 0.47852 1.4199-1.1172-0.98047-1.1856 0.90234 0.57813-1.3808-1.2051-0.86329 1.4707 0.12696 0.43165-1.4199zm-13.396 0.36133 0.49805 1.4121 1.4707-0.19531-1.1758 0.91016 0.64648 1.3535-1.2246-0.84375-1.0684 1.0293 0.4121-1.4316-1.3047-0.71485 1.4805-0.04882 0.26562-1.4707zm20.059 0.0293 0.26563 1.4707 1.4805 0.04883-1.3047 0.71484 0.41211 1.4414-1.0684-1.0488-1.2246 0.85352 0.63672-1.3535-1.166-0.91992 1.4707 0.20508 0.49804-1.4121zm-26.703 0.66797 0.55859 1.3809 1.459-0.25391-1.127 0.95899 0.69727 1.3242-1.2559-0.79493-1.0195 1.0781 0.34375-1.4492-1.332-0.6582 1.4785-0.10743 0.19727-1.4785zm33.357 0.03906 0.19727 1.4883 1.4688 0.10938-1.332 0.65625 0.34375 1.4492-1.0195-1.0879-1.2637 0.79492 0.71485-1.3242-1.1367-0.95899 1.459 0.26368 0.56836-1.3906zm-39.982 0.95899 0.61719 1.3633 1.4414-0.31446-1.0879 1.0098 0.74414 1.293-1.2832-0.74414-0.98047 1.1172 0.29297-1.4609-1.3613-0.60742 1.4805-0.16602 0.13672-1.4902zm46.637 0.06054 0.11914 1.4883 1.4688 0.1875-1.3613 0.58789 0.27344 1.4688-0.96094-1.1367-1.3027 0.73437 0.76562-1.293-1.0684-1.0195 1.4297 0.33399 0.63672-1.3516zm-23.264 3.8301 0.39062 1.4414 1.4707-0.07813-1.2441 0.82227 0.53907 1.4023-1.1562-0.95117-1.1465 0.95117 0.5293-1.4023-1.2363-0.82227 1.4707 0.07813 0.38282-1.4414zm-6.7129 0.1875 0.45898 1.4199 1.4707-0.15625-1.1953 0.88282 0.60742 1.3711-1.1953-0.88281-1.0977 1.0098 0.45118-1.4297-1.2852-0.73632 1.4805-0.00977 0.30469-1.4688zm13.455 0.0293 0.29297 1.4688 1.4805 0.01953-1.293 0.73633 0.44922 1.4297-1.0977-1.0195-1.2051 0.87305 0.61718-1.3613-1.1855-0.89258 1.4707 0.16602 0.4707-1.4199zm-20.139 0.50976 0.5293 1.4004 1.459-0.22461-1.1465 0.93946 0.66601 1.334-1.2344-0.82422-1.0488 1.0586 0.38281-1.4395-1.3223-0.6875 1.4785-0.07812 0.23633-1.4785zm26.812 0.0586 0.23438 1.4785 1.4707 0.08008-1.3242 0.68555 0.38281 1.4394-1.0391-1.0586-1.2539 0.81445 0.68555-1.332-1.1465-0.94141 1.4609 0.22461 0.5293-1.3906zm-33.486 0.79297 0.59766 1.3633 1.4394-0.28516-1.1074 0.99024 0.73633 1.3027-1.2754-0.76367-0.99805 1.0976 0.32227-1.4609-1.3516-0.61719 1.4687-0.14649 0.16797-1.4805zm40.16 0.07812 0.15625 1.4805 1.4805 0.15625-1.3535 0.61719 0.31446 1.4609-1-1.1074-1.2734 0.75391 0.73437-1.3027-1.0976-0.99023 1.4414 0.29492 0.59766-1.3633zm-86.621 8.3594c1.4406 4.3511 0.44938 8.86-2.3926 11.467 0.039199-1.2152-0.18565-2.4996-0.71484-3.7344 0.50959-2.2148 1.5482-5.0268 2.293-6.3008-1.1368 0.98978-2.2638 3.3211-2.793 5.3203-0.2744-0.4704-0.57878-0.9204-0.95117-1.3418 0.95059-2.7244 3.069-4.8026 4.5586-5.4102zm138.02 0.76562-2.5098 5.752-0.39258-1.4121-14.943 18.924c-0.82319 0.91139-1.6378 1.8134-2.4414 2.666l-0.0293-0.01953c1.0584-1.5974 2.1858-3.3128 3.2442-4.9199l13.533-17.148-1.459-0.05078 4.998-3.791zm-12.172 3.1055-1.2734 6.1445-0.67774-1.293-13.17 26.656c-0.098-0.11759-0.22602-0.23602-0.38281-0.32422-0.0784-0.0392-0.16564-0.09748-0.27344-0.14648l13.102-26.539-1.4414 0.25586 4.1172-4.7539zm-133.98 0.36328c3.6357 2.499 4.419 4.9888 5.2422 8.1836 0.0294-0.0098 0.060444-0.02125 0.089844-0.03125 0.68599-0.1372 1.3413 0.29448 1.4785 0.98047 0.1372 0.67619-0.30425 1.3433-0.99024 1.4805-0.67619 0.1372-1.3413-0.30427-1.4785-0.98047-0.1176-0.60759 0.20511-1.1848 0.75391-1.4102-1.176-2.499-3.2729-5.8903-5.0957-8.2227zm87.199 2.1465c-1.2544 0-2.3319 0.64604-3.4785 1.332-1.225 0.73499-2.6268 1.5781-4.3418 1.5781-1.7542 0-3.0277-0.52923-4.0566-1.1074v6.5176c0.23519 0.1372 0.46014 0.27295 0.68554 0.41015 1.0388 0.63699 1.9403 1.1953 3.3711 1.1953 0.88199 0 1.764-0.5291 2.793-1.1465 1.3818-0.82319 2.94-1.7539 5.0273-1.7539 1.9796 0 3.2928 0.80417 4.4492 1.5098 1.0388 0.64679 1.9305 1.1953 3.3711 1.1953 1.3622 0 2.0964-0.597 3.0176-1.3418 0.63699-0.50959 1.3638-1.1081 2.334-1.4609 0.1372-2.1658 0.27293-4.4779 0.41993-6.8789-0.2548 0.1666-0.52818 0.3819-0.85157 0.64649-1.1074 0.89179-2.4896 2.0098-4.9199 2.0098-2.2834 0-3.7634-0.90173-4.9492-1.6367-0.97019-0.59779-1.7441-1.0684-2.8711-1.0684zm58.721 0.17578-2.9297 5.5469-0.28515-1.4316-20.461 22.373c-0.88199 0.6958-1.6174 1.274-2.127 1.6758 0.1764-0.35279 0.36256-0.73486 0.56836-1.1562l21.422-23.441-1.4492-0.15625 5.2617-3.4102zm-133.05 2.166c1.8522 8.3299-2.2541 9.0067-4.4395 12.113-2.3814-4.2629-0.22528-10.075 4.4395-12.113zm123.22 0.16602-2.0195 5.9394-0.50977-1.373-11.496 17.426c-0.0392 0.04898-0.08776 0.09748-0.12696 0.14648 0.82319-1.666 1.7642-3.5674 2.7246-5.5176l8.2324-12.484-1.4609 0.07812 4.6562-4.2148zm-124.65 1.8418c-2.0874 1.2838-3.5488 7.527-2.9902 9.8691 1.078-4.0277 1.6379-6.8312 2.9902-9.8691zm134.92 0.50977-3.3613 5.3027-0.17578-1.4512-12.447 11.525c-1.274 1.0192-2.5874 2.0473-3.8418 3.0371 1.029-1.1368 2.1269-2.3414 3.2539-3.5859l12.486-11.574-1.4316-0.27344 5.5176-2.9805zm19.648 3.5293-1.0879 5.5762 1 0.19531 0.39257-2.0391 4.625 4.2148-5.9102 2.3711 0.35351-1.7734-1.0098-0.19531-1.3027 6.7031 1.0098 0.19531 0.29297-1.5098 8.1152-3.3418 6.6152 1.2949-0.35352 1.8027 1.0098 0.19531 1.3125-6.7129-1.0293-0.17578-0.35156 1.8223-7.2324-1.4199-5.7832-5.2832 0.33399-1.7246-1-0.19531zm-167.49 0.02929c3.6063 0.3822 5.7721 2.5574 7.2715 4.5859 0.47039 0 0.8923 0.34208 0.9707 0.82227 0.097998 0.53899-0.26371 1.0485-0.8125 1.1367-0.53899 0.0882-1.0485-0.27351-1.1465-0.8125-0.088199-0.5096 0.23462-0.98979 0.72461-1.1172-2.058-1.8522-5.0282-3.6744-7.0078-4.6152zm-15.924 0.79297-1 0.2461 0.44141 1.8027-13.662 3.3418-0.43945-1.8027-1 0.24414 1.627 6.6348 1-0.24609-0.44141-1.7734 6.2324-1.5176 1.8809 7.7109-6.2324 1.5195-0.43164-1.7832-0.99805 0.24414 1.627 6.6348 0.98828-0.23437-0.43945-1.8027 13.66-3.3418 0.44141 1.8027 1-0.24609-1.6172-6.6445-1 0.24609 0.43164 1.7734-6.0273 1.4707-1.8828-7.7031 6.0273-1.4707 0.43164 1.7754 1-0.24609-1.6172-6.6348zm33.094 0c4.1845 8.7023-0.58676 10.172-1.4688 13.494-0.58799-3.1163 0.027858-8.1335 0.43945-10.73-1.323 1.764-1.6841 4.2241-1.5273 6.6055 0 0.0294 0.009731 0.04873 0.019531 0.07813 0.0294 0.1176 0.019566 0.23592 0.009766 0.35351 0.097999 1.0584 0.29396 2.1061 0.56836 3.0469-0.44099-0.64679-0.82323-1.3917-1.1074-2.2051-0.1176 0.0686-0.24558 0.1288-0.39258 0.1582-0.62719 0.1274-1.2339-0.28492-1.3613-0.91211-0.1274-0.61739 0.28296-1.2339 0.91016-1.3613 0.1176-0.02 0.23592-0.02172 0.35352-0.01172-0.3234-2.793 0.52849-5.9775 3.5566-8.5156zm129.68 0.7461-3.7734 5.0078-0.0586-1.4609-21.049 16.611c0.56839 0.1078 1.0776 0.31364 1.2246 0.54883 0.36259 0.57819 0.26482 0.86177-0.06835 1.8516-0.3234 0.95059-0.55836 1.2829-1.1856 1.3613-0.1764 0.0196-0.50065 0.05911-0.87305-0.08789 0.1862 0.1274 0.32391 0.23543 0.41211 0.49023 0.0882 0.25479 0.24489 0.70591-0.5293 1.5879-0.69579 0.784-1.3438 1.0675-1.8828 0.75391-0.3038-0.1764-0.40183-0.3725-0.54883-0.5293 0.0784 0.2058 0.16783 0.44255 0.20703 0.67774 0.1274 0.78399-0.47003 1.0772-1.2246 1.3418-1.4308 0.50959-2.1277 0.28495-2.4609-0.21484-0.71539-1.0878-0.31223-2.4796 0.16797-2.7148-0.1176 0.4214-0.1077 0.88102-0.0293 1.3906 0.0686 0.42139 0.26292 1.1077 1.0371 1.0391 0.4214-0.0392 1.1859-0.21577 1.6465-0.50976 0.3332-0.2156 0.34434-0.77374 0.17774-1.2441-0.0784-0.23519-0.17675-0.57728-0.46094-0.82227 0.47039 0.12739 0.7448 0.38175 1.1172 0.68555 0.3626 0.30379 0.92074 0.37225 1.2441 0.03906 0.40179-0.4312 0.65577-0.74506 0.79297-1.0391 0.36259-0.75459-0.60743-1.3426-1.166-1.6562 0.98979 0.0392 1.1476 0.42229 1.9512 0.30469 0.79379-0.1176 1.0291-1.3931 1.0391-1.8145 0.0098-0.3038-0.36362-0.61677-0.82422-0.73437-0.35279-0.0884-0.75481-0.08813-1.0586-0.07813 0.0392-0.2058 0.05867-0.45031 0.03907-0.69531 0.0392 0 0.07021-0.01172 0.09961-0.01172l0.49804-0.39062 21.207-16.758-1.4102-0.38281 5.7422-2.5469zm-123.22 1.3613c-0.245 2.4108 0.068531 4.5377 0.019531 6.6055 1.3622-2.156 3.743-3.6073 5.752-4.1953-0.2744 8.5945-4.2049 9.2521-5.9395 11.447 0.2842-2.646 1.6479-6.175 4.0293-9.1934-3.2438 2.156-4.2927 5.2528-4.3809 8.3789-0.2646-0.66639-0.41184-1.3123-0.49024-1.9297-0.38219 0.73497-0.88244 1.4798-1.5488 2.2441-0.62719-3.9298 0.34386-8.1921 0.87305-10.23-1.7052 1.715-2.2739 5.7718-1.5879 9.0254 0.30379 0.19599 0.53879 0.51816 0.61719 0.91015 0.1568 0.76439-0.343 1.519-1.1172 1.6758-0.77419 0.1568-1.5288-0.343-1.6855-1.1172-0.1568-0.77419 0.343-1.5288 1.1172-1.6856 0.1862-0.0294 0.3627-0.0294 0.5293 0-1.7052-3.675-0.30344-8.9368 3.8125-11.936zm-13.344 3.5996c0.64164 0.00362 1.219 0.45183 1.3477 1.1035 0.1568 0.75459-0.33334 1.48-1.0781 1.627-0.74479 0.1568-1.48-0.33333-1.627-1.0781-0.1568-0.75459 0.33334-1.48 1.0781-1.627 0.093099-0.01837 0.18763-0.0259 0.2793-0.02539zm-7.207 1.2812c1.6954 0.0784 3.9009 0.09753 7.1152 2.9297 0.147-0.1862 0.36236-0.33381 0.62695-0.38281 0.54879-0.098 1.0583 0.26569 1.1465 0.80469 0.097999 0.54879-0.26566 1.0583-0.81445 1.1465-0.53899 0.0882-1.0583-0.26565-1.1465-0.81445-0.039198-0.22539 0.00161-0.43099 0.09961-0.61719-2.3324-1.6464-6.0082-2.7038-7.0273-3.0664zm85.592 4.1445c-1.2544 0-2.3319 0.64605-3.4785 1.332-1.2348 0.72519-2.6268 1.5684-4.3418 1.5684-1.7542 0-3.0277-0.52923-4.0566-1.1074v7.9785c0.91139-0.93099 2.2142-1.7656 4.0664-2.334l2.2734-0.70507c1.9012-0.60759 4.5091-1.4214 8.6152-2.6856 1.1956-0.36259 2.2915-0.86115 3.2812-1.4688-1.4896-0.28419-2.5769-0.94137-3.4883-1.5098-0.97019-0.59779-1.7441-1.0684-2.8711-1.0684zm-81.088 0.6543c1.8072 0.00368 3.0875 0.46603 4.7266 1.3848 0.2156 0.0688 0.25651 0.07819 0.070312 0.05859-2.009-0.69579-3.9901-1.0774-6.8125-1.293 0.75214-0.10045 1.4132-0.15161 2.0156-0.15039zm5.6914 1.4238c0.66522 0.0012 1.2612 0.46908 1.3984 1.1465 0.1568 0.76439-0.343 1.519-1.1172 1.6856-0.77419 0.1568-1.5287-0.343-1.6855-1.1172-0.1568-0.77419 0.343-1.5287 1.1172-1.6855 0.096774-0.0196 0.19208-0.02947 0.28711-0.0293zm150.38 1.998-0.4707 1.2559 0.63867 0.24414-4.0781 10.828-0.63672-0.24414-0.4707 1.2539 3.8809 1.4609 0.4707-1.2637-1.9004-0.71679 1.4883-3.9492 12.77 4.8125-0.83204 2.2148 0.95899 0.36133 2.7637-7.3496-0.93945-0.36133-0.82422 2.1953-12.77-4.8125 1.4805-3.9297 1.8906 0.71484 0.4707-1.2539-3.8906-1.4609zm-147.85 0.78906c0.4617 0.01112 0.86814 0.34674 0.94531 0.81836 0.088199 0.5292-0.27354 1.0485-0.80274 1.1465-0.53899 0.0882-1.0485-0.27351-1.1465-0.8125-0.0294-0.1372-0.019669-0.28471 0.019531-0.41211h-0.009765c-2.4598 0.0098-5.4587 0.61682-8.3301 1.2832 2.548-1.421 5.5957-1.8119 8.3887-1.4395 0.1274-0.294 0.40118-0.51936 0.73438-0.56836 0.067374-0.01225 0.13522-0.01721 0.20117-0.01562zm9.0977 0.34766c0.69724 8e-4 1.3171 0.49531 1.4629 1.207 0.1568 0.79379-0.36435 1.5873-1.1777 1.7539-0.80359 0.1666-1.5873-0.36242-1.7539-1.166-0.1666-0.81339 0.35263-1.599 1.166-1.7656 0.10167-0.02082 0.20313-0.02941 0.30273-0.02929zm-6.5469 1.1035c0.60412 0.00577 1.139 0.43415 1.2676 1.043 0.1372 0.69579-0.31398 1.3726-1.0098 1.5098-0.67619 0.1372-1.3236-0.28485-1.5-0.93165h-0.058594c-2.0678 0.2842-5.5178 1.5971-7.6836 2.8711 2.107-2.499 5.5572-3.0472 7.625-2.9688 0.0294 0 0.058491 0.00976 0.087891 0.00976-0.1372-0.68597 0.31398-1.3726 1.0098-1.5098 0.088198-0.01715 0.17542-0.02426 0.26172-0.02344zm3.5 1.0508c0.49587 4e-4 0.93616 0.34956 1.0391 0.85547 0.1176 0.57819-0.244 1.1461-0.8418 1.2637-0.56839 0.1176-1.1363-0.26359-1.2539-0.84179-0.1078-0.57819 0.2636-1.1383 0.8418-1.2559 0.072274-0.0147 0.144-0.02154 0.21484-0.02149zm6.2852 0.13672c0.56869-0.02644 1.0779 0.36521 1.1934 0.93359 0.1176 0.62719-0.28492 1.2456-0.91211 1.373-0.62719 0.1274-1.2437-0.28492-1.3711-0.91211s0.28297-1.2437 0.91016-1.3711c0.059718-0.01194 0.12086-0.0207 0.17969-0.02344zm-3.7578 2.2266c0.69724 8.1e-4 1.3171 0.49534 1.4629 1.207 0.1568 0.80359-0.36239 1.5971-1.1758 1.7539-0.80359 0.1666-1.5991-0.36244-1.7559-1.166-0.1666-0.81339 0.36438-1.5971 1.168-1.7637 0.10167-0.02082 0.20118-0.03136 0.30078-0.03125zm-40.586 0.19727c-1.0787 0.04686-2.1755 0.30056-3.2363 0.7832-4.2433 1.9306-6.1452 6.7143-4.2832 10.801 1.862 4.0865 6.7332 5.8114 10.977 3.8809 4.2433-1.9306 6.1042-6.724 4.2422-10.811-1.3965-3.0649-4.463-4.7949-7.6992-4.6543zm35.256 0.15234c0.12871-0.01986-0.008563 0.20354-0.52734 0.74805-1.813 1.911-3.9109 4.9785-4.8027 6.6641 0.3234-2.0972 1.7155-4.6054 3.7539-6.291 0.80481-0.667 1.4107-1.0956 1.5762-1.1211zm10.668 0.21094c0.26276-0.00643 0.51004 0.01204 0.71094 0.05859-0.0098 0.2548 0.019394 0.49933 0.058594 0.69532-0.294-0.0294-0.82271-0.06871-1.2539 0.02929-0.47039 0.1078-0.85352 0.40126-0.85352 0.71485 0 0.4214 0.20621 1.7066 1 1.8438 0.79379 0.1372 0.96923-0.2361 1.9492-0.2461-0.56839 0.294-1.548 0.8528-1.2148 1.6172 0.1372 0.294 0.3736 0.62741 0.77539 1.0586 0.3136 0.35279 0.87175 0.29399 1.2441 0 0.37239-0.29398 0.65653-0.54847 1.1367-0.65624-0.29399 0.23517-0.40203 0.56753-0.49023 0.80273-0.1764 0.47039-0.18668 1.0285 0.13672 1.2441 0.45079 0.3136 1.2154 0.50959 1.627 0.55859 0.77419 0.0882 0.98019-0.59622 1.0586-1.0078 0.097998-0.5096 0.11756-0.96138 0.009765-1.3926 0.48019 0.245 0.84248 1.6467 0.087891 2.7148-0.3528 0.48999-1.0576 0.69527-2.459 0.14648-0.73499-0.2842-1.3326-0.58707-1.166-1.3809 0.048999-0.23519 0.13641-0.47193 0.22461-0.67773-0.147 0.1568-0.25476 0.34313-0.56836 0.51953-0.54879 0.30379-1.1949-0.00895-1.8613-0.80274-0.75459-0.91137-0.58827-1.3429-0.48047-1.5976 0.097998-0.2548 0.23564-0.35307 0.43164-0.48047-0.3724 0.1372-0.69665 0.08796-0.87305 0.06836-0.62719-0.0882-0.85249-0.43024-1.1465-1.3906-0.3038-0.98979-0.39193-1.293-0.019531-1.8516 0.2205-0.33075 1.1473-0.5686 1.9355-0.58789zm85.359 0.19922c0.14092-0.01654 0.33073 0.16569 0.42383 0.39844 0.14698 0.40179 0.44048 0.80254 1.2637 0.86132-0.57819 0.3528-1.1941 0.29356-1.5371 0.12696-0.3334-0.1666-0.33422-0.42956-0.32422-1.0274 0.00398-0.24285 0.0774-0.34805 0.17383-0.35937zm-79.027 0.50976c0.10863-0.00281 0.19493 0.09589 0.19922 0.35743 0.0098 0.59779 0.010962 0.86269-0.33203 1.0293-0.3332 0.16659-0.93151 0.21604-1.5293-0.12695 0.81339-0.0588 1.1167-0.45954 1.2637-0.86133 0.082686-0.2205 0.25878-0.3948 0.39844-0.39844zm81.787 0.39649c0.43235-0.00598 0.8689 0.13489 1.1133 0.43164-0.0882 0.70559-0.33303 2.0188-1.7246 2.2441 0.196-0.57819 0.17713-1.7632-0.20507-2.459 0.22693-0.13935 0.52059-0.21271 0.8164-0.2168zm-84.584 0.50977c0.31853-0.00704 0.64076 0.06673 0.88086 0.21679-0.3724 0.70559-0.41286 1.8808-0.19727 2.459-1.3916-0.2254-1.6364-1.5484-1.7246-2.2441 0.22601-0.28114 0.63148-0.42261 1.041-0.43164zm-11.801 0.28515c-1.617 2.499-3.3519 9.1242-3.2637 11.025-0.78399-1.9698-0.098682-5.1451 0.75391-7.2129 0.58799-1.4308 2.059-3.6067 2.5098-3.8125zm-35.65 0.80664c2.0439 0.00517 3.7969 0.76812 4.4277 2.1524 1.0192 2.2441-1.0488 5.5767-4.4102 7.1055-3.3809 1.5386-7.2523 0.91215-8.2715-1.332-1.0094-2.2147 1.0585-5.5474 4.4395-7.0859 1.2568-0.5733 2.5881-0.84295 3.8145-0.83985zm130.54 0.04492c0.0784 0.44099 0.24517 0.85411 0.50977 1.2461 0.21559 0.3038 0.50901 0.49938 0.72461 0.67578-0.3724 0.294-0.91252 0.45124-1.3535 0.43164-0.45099-0.0196-0.46885-0.08926-0.43945-0.25586 0.1078-0.74479 0.39202-1.8037 0.55859-2.0977zm-81.535 0.50977c0.1764 0.294 0.46063 1.3431 0.54883 2.0977 0.0294 0.1666 0.009353 0.23626-0.43164 0.25586-0.44099 0.01958-0.97917-0.14746-1.3516-0.43165 0.2156-0.1862 0.51881-0.37198 0.72461-0.67578 0.2744-0.39199 0.43137-0.8051 0.50977-1.2461zm2.9492 0.30469c5.8995 4.4393 9.2411 10.604 10.104 15.562-0.74479-0.53899-2.1357-1.108-2.9883-0.94141-0.76439-5.2331-3.4987-9.4665-7.791-12.906 0.1764-0.79379 0.44058-1.3424 0.67578-1.7148zm74.92 0.9707c-0.0098 0.0196-0.02923 0.02906-0.04883 0.03906 0 0-0.04852 0.02909-0.13672 0.08789-1.7052 1.1074-8.6445 5.3906-8.6445 5.3906l-0.96875-0.1875-2.8535 1.9414-3.0566 1.9004-0.17578-0.95117-1.6367-0.59765 7.252-3.4395 1.1562 0.36328 9.1133-4.5469zm0.40234 0.73437c-0.3332 0.3626-1.2938 1.4108-2.166 2.3613l-7.625 5.3711-0.8711-0.0293-4.9297 4.252-0.20508-1.293-1.7148-0.35351 6.1133-3.8106 0.69726-0.43164 1.1856 0.24414-0.00977-0.01953 9.5254-6.291zm0.74414 0.42188c-0.02939 0.36259-3.1e-4 0.72537 0.08789 1.0684l-3.6445 4.291-0.92187 0.19726-4.8027 6.3106-0.2539-1.4219-1.4316 0.06836-0.06836 0.0293 0.01953-0.01953-0.27344 0.01172 5.791-5.793 0.10742-0.10742 1.2266-0.09766 4.1641-4.5371zm0.83399 2.4004c0.19599 0.1862 0.42096 0.31414 0.68554 0.40234l-3.1074 6.4473 0.41211 1.166-3.5176 7.2129-0.65625-1.7637-1.7949 0.54883 3.7148-7.1152 1.1465-0.38086-0.01953-0.00977 3.1367-6.5078zm43.168 1.5195-3.2539 6.0059 0.89258 0.49024 0.89062-1.627 12.357 6.6934-0.88086 1.6367 0.90039 0.49024 3.2637-6.0078-0.90039-0.49804-0.87305 1.6055-12.367-6.6934 0.8711-1.6055-0.90039-0.49024zm-163.12 2.9883-0.82422 0.60742 1.207 1.6563-11.379 8.2617-1.2051-1.6562-0.83203 0.59766 3.3125 4.5664 0.83203-0.60743-1.2051-1.6562 8.3496-6.0664-5.9199 11.564 12.721-2.5879-8.5352 6.1934-1.2051-1.6562-0.83398 0.59961 4.2637 5.8691 0.82227-0.60742-1.2051-1.666 11.377-8.2617 1.207 1.666 0.83203-0.60742-2.8418-3.9102-12.182 2.5488 5.7812-11.359-2.5371-3.4883zm158.97 8.0703c-0.27577-0.01807-0.55419-0.0065-0.83593 0.03515-1.2348 0.1862-2.1851 0.92966-3.4395 2.6152l-4.293 5.7832 0.81446 0.60742 1.1055-1.4902 11.291 8.3789-1.1074 1.4902 0.82226 0.60742 4.0762-5.4883-0.82227-0.60742-1.0879 1.4688-4.9394-3.6738 0.39258-0.5293 6.791 0.48047c1.5288 0.1078 1.7939-0.00983 2.6562-1.166l1.8516-2.4902-0.83203-0.59766-0.59765 0.80469c-0.29399 0.392-0.63704 0.49825-1.666 0.43945l-6.3418-0.39062c0.80359-2.2638 0.33426-4.0091-1.4297-5.3223-0.7791-0.58064-1.5809-0.90087-2.4082-0.95507zm-1.7051 2.8633c0.7007-0.06248 1.466 0.19425 2.25 0.77734 1.5484 1.1564 1.941 2.8722 0.94141 4.2246l-0.86133 1.1562-5.0976-3.7832 0.91211-1.2344c0.51939-0.69579 1.1548-1.0782 1.8555-1.1406zm-8.0684 7.2461-4.1856 3.8106 0.70703 0.77539 1.498-1.373 6.125 6.7129c1.9992 2.1952 1.9119 4.6357-0.25391 6.6055-0.53899 0.49979-1.1853 0.84311-1.8125 1.0293-1.3622 0.3528-2.4414-0.17722-4.1074-2l-6.1445-6.7324 1.3535-1.2344-0.69726-0.75391-5.0469 4.6055 0.6875 0.75391 1.3711-1.2539 6.6445 7.291c2.2736 2.4892 5.6344 2.3726 8.5547-0.30274 0.94079-0.85256 1.637-1.8536 2.1074-2.9414 0.87219-2.1168 0.41077-4.0358-1.4512-6.0742l-6.1836-6.7832 1.5098-1.3809-0.67578-0.75391zm-135.38 0.27344-0.69727 0.7539 1.3633 1.2559-9.5254 10.338-1.3633-1.2539-0.69531 0.7539 8.5449 7.8691 2.1758-2.4102-0.96875-0.89258-1.2266 1.334-3.8906-3.5879 4.0879-4.4277 2.8711 2.6445-1.1562 1.2656 0.99023 0.87109 3.2617-3.5371-0.97852-0.87305-1.127 1.2246-2.8711-2.6445 3.9004-4.2344 3.7324 3.4394-1.1855 1.2949 0.95117 0.8711 2.6348-2.8516-0.96875-0.89257-0.46094 0.50976-7.3984-6.8203zm11.602 9.8789-0.57812 0.85157 1.5391 1.0391-7.8496 11.672-1.5391-1.0391-0.57812 0.85352 9.5645 6.4277 1.8242-2.7051-1.0879-0.73437-1.0098 1.5-4.3125-2.9004 7.6152-11.32 1.5195 1.0195 0.56836-0.85157-5.6758-3.8125zm108.84 2.2246-1.1465 0.69532 0.5293 0.87304c-1.5288 0.2156-2.5773 0.59676-3.9297 1.4199-4.2041 2.5382-5.4677 7.5071-2.9785 11.623 2.5186 4.1552 7.4573 5.2222 11.857 2.5469 1.5974-0.96039 2.5577-1.8612 3.9394-3.5859l-1.7051-2.7832-1.166 0.70507 0.96094 1.5879c-0.6076 1.2054-1.2151 1.8923-2.2637 2.5195-2.8812 1.7542-6.7038 0.46881-8.7617-2.9121-2.0972-3.4594-1.5492-7.1032 1.3516-8.8672 1.1074-0.67619 1.9218-0.85393 3.6172-0.73633l0.8125 1.3438 1.1465-0.69726-2.2637-3.7324zm-92.02 7.3203-12.191 11.584-1.373-0.62891-0.41992 0.93165 4.5957 2.0976 0.41992-0.94141-1.7734-0.80273 3.0781-2.9414 5.3984 2.4609-0.26367 4.2227-1.5586-0.70508-0.42188 0.93164 5.4199 2.4688 0.42188-0.92969-0.93164-0.43164 0.95117-16.699-1.3516-0.61718zm77.674 0.62695-1.2266 0.48047 0.25586 0.63672-9.3691 3.6758 0.37305 0.94922 1.7246-0.68555 5.1348 13.092-1.7246 0.67773 0.37305 0.94922 10.809-4.2422-1.166-3.0195-1.2246 0.48047 0.66602 1.6856-4.9395 1.9316-2.2051-5.6055 3.6367-1.4316 0.62696 1.5879 1.2148-0.50977-1.7539-4.4785-1.2266 0.50976 0.60938 1.5488-3.6367 1.4297-2.1074-5.3594 4.7344-1.8535 0.63672 1.6367 1.2051-0.47071-1.4199-3.6152zm-79.42 3.0273-0.41992 6.5176-4.3516-1.9902 4.7715-4.5274zm9.8691 0.58789-0.23438 1 1.7051 0.41211 0.4707 1.3906-2.9902 12.457-1.9688-0.4707-0.23633 1 5.3711 1.2832 0.23438-1-1.8711-0.45117 2.4785-10.377 5.4785 13.611 1.666 0.40235 3.5469-14.936 2 0.48047 0.2461-1-5.3613-1.2832-0.24609 1 1.8828 0.45117-2.3809 9.9453-5.0664-12.779-4.7246-1.1367zm54.703 1.7051-1.2832 0.28516 0.15625 0.71484c-0.97998-0.1764-1.7546-0.16674-2.6856 0.03906-2.9008 0.63699-4.459 2.8033-3.8809 5.4297 0.2352 1.0486 0.74541 1.9316 1.5 2.4902 0.77419 0.588 1.1177 0.75442 3.7734 1.7246 2.5283 0.94076 3.3898 1.547 3.625 2.625 0.2744 1.2446-0.60811 2.3622-2.0879 2.6855-1.1662 0.2548-2.0386 0.11739-3.3027-0.5l-0.38086-1.7637-1.3144 0.28516 0.94141 4.291 1.3125-0.2832-0.19532-0.84375c1.2348 0.40179 2.294 0.47177 3.6758 0.16797 2.8027-0.60759 4.3595-2.9515 3.7617-5.666-0.2058-0.93099-0.58768-1.6657-1.2051-2.3125-0.5488-0.5586-1.1658-0.96977-1.793-1.2344-0.3038-0.12739-1.0874-0.40265-2.3418-0.88281-2.6068-0.95059-3.2923-1.4303-3.498-2.3809-0.2548-1.127 0.50933-2.2139 1.7539-2.4883 0.88199-0.196 1.5682-0.08935 2.7148 0.33204l0.36133 1.6465 1.2852-0.2832-0.89258-4.0781zm-36.367 2.3828-0.03906 1.0293 1.8516 0.06836-0.5 14.053-1.8516-0.06835-0.03906 1.0293 7.5644 0.27344h0.01953c2.3912 0.0882 4.1468-0.50874 5.7344-1.9199 1.7149-1.5484 2.695-3.6172 2.7734-5.8613 0.1764-4.5177-3.2925-8.1635-7.8984-8.3301l-7.6152-0.27344zm4.9492 1.5488 2.0664 0.07813c2.8615 0.098 5.1938 3.2628 5.0664 6.8496-0.13719 3.8317-2.5576 6.6547-5.6348 6.5371l-1.9785-0.07032 0.48047-13.395z"/>
  <path fill="#C41230" d="m123.71 36.949c-19.688 0-37.846 6.5862-52.379 17.68 0.68599 0.245 1.3804 0.49904 2.0762 0.77344 0.83299 0.3234 1.6379 0.64731 2.4219 0.9707 13.494-9.6529 30.026-15.348 47.881-15.348 19.943 0 38.239 7.0955 52.488 18.895 1.6072-0.46059 3.1761-0.87161 4.7734-1.2832-15.249-13.494-35.3-21.688-57.262-21.688zm-73.195 40.453c-8.3887 13.318-13.238 29.087-13.238 45.982 0 47.735 38.698 86.434 86.434 86.434 47.735 0 86.436-38.698 86.436-86.434 0-16.062-4.3913-31.115-12.025-44.002-1.372 0.47039-2.7434 0.85252-4.0762 1.1367 7.6243 12.485 12.025 27.166 12.025 42.865 0 45.481-36.868 82.357-82.359 82.357-45.481 0-82.357-36.876-82.357-82.357 0-16.385 4.7915-31.664 13.043-44.492-1.3132-0.38219-2.5971-0.88264-3.8809-1.4902z"/>
  <path fill="#C0C2C4" d="m123.7 0.89563c-67.649 0-122.5 54.84-122.5 122.5 0 67.658 54.85 122.5 122.5 122.5 67.658 0 122.5-54.84 122.5-122.5 0-67.658-54.84-122.5-122.5-122.5zm0 237.41c-63.464 0-114.91-51.449-114.91-114.91 0-63.464 51.449-114.9 114.91-114.9 63.454 0 114.9 51.449 114.9 114.9 0.01 63.464-51.44 114.91-114.9 114.91z"/>
  <path fill="#5E9732" d="m122.79 142.96h-23.216c0.343 0.71539 0.73499 1.3818 1.1858 2.0188 1.6758 2.3422 4.0571 4.0866 7.0755 5.0077 4.1061 1.2642 6.7129 2.0776 8.6239 2.6852l2.2736 0.70559c1.862 0.57819 3.1556 1.4112 4.067 2.3324v-12.75z"/>
  <path fill="#0078AE" d="m122.79 116.95c-8.0751 0.0686-18.014 1.1855-25.824 2.8711 0.3332 6.0857 0.67654 12.024 1.0195 16.758 0.1862 2.5578 0.55842 3.803 1.166 5.3906l1.1562-2.1367 0.92188-0.88085 0.86328 0.91015 1.5566-1.2148 0.90234-1.1953 1.5977-2.7051 2.3125-1.2246 1.7051-1.8027 1.1172-1.7852 2.1074-0.48828 1.4102-1.5586 2.373 2.127 2.1152 0.91992 0.93164 2.4414 1.4414 0.71485c0.38219 0.91139 0.75456 1.0773 1.127 1.3027v-18.443zm1.793 0v6.9688c0.23519 0.1372 0.46015 0.27296 0.68555 0.41016 1.0388 0.63699 1.9403 1.1973 3.3711 1.1973 0.88199 0 1.764-0.52909 2.793-1.1465 1.3818-0.82319 2.94-1.7656 5.0273-1.7656 1.9796 0 3.2928 0.81394 4.4492 1.5195 1.0388 0.63699 1.9305 1.1855 3.3711 1.1855 1.372 0 2.1062-0.597 3.0273-1.3418 0.76439-0.61739 1.6674-1.3525 2.9512-1.6367 0.049-0.83299 0.09749-1.6767 0.14649-2.5195-7.8105-1.6758-17.747-2.7927-25.822-2.8711zm11.887 18.68c-1.2544 0-2.3319 0.64604-3.4785 1.332-1.225 0.73499-2.6268 1.5684-4.3418 1.5684-1.764 0.0196-3.0374-0.5097-4.0664-1.0879v6.791c0.23519 0.1372 0.46015 0.27492 0.68555 0.4121 1.0388 0.6468 1.9403 1.1953 3.3711 1.1953 0.88199 0 1.764-0.52909 2.793-1.1465 1.3818-0.82319 2.94-1.7637 5.0273-1.7637 1.9796 0 3.2928 0.81199 4.4492 1.5176 1.0388 0.63699 1.9305 1.1875 3.3711 1.1875 1.1074 0 1.8041-0.39261 2.5293-0.94141 1.4896-2.205 2.3508-4.94 2.5664-8.125 0.01-0.1372 0.0195-0.27299 0.0293-0.40039-0.0686 0.049-0.12672 0.09745-0.19532 0.15625-1.1074 0.89179-2.4896 2.0176-4.9199 2.0176-2.2834 0-3.7634-0.89978-4.9492-1.6348-0.97019-0.60759-1.7441-1.0781-2.8711-1.0781z"/>
 </g>
</svg>