<svg width="18" height="15" viewBox="0 0 18 15" fill="none" xmlns="http://www.w3.org/2000/svg">
<path d="M3 15C2.58579 15 2.25 14.6642 2.25 14.25V9C2.25 8.58579 2.58579 8.25 3 8.25C3.41421 8.25 3.75 8.58579 3.75 9V14.25C3.75 14.6642 3.41421 15 3 15Z" fill="#2376C3"/>
<path d="M3 6.75C2.58579 6.75 2.25 6.41421 2.25 6V0.75C2.25 0.335786 2.58579 0 3 0C3.41421 0 3.75 0.335786 3.75 0.75V6C3.75 6.41421 3.41421 6.75 3 6.75Z" fill="#2376C3"/>
<path d="M9 15C8.58579 15 8.25 14.6642 8.25 14.25V7.5C8.25 7.08579 8.58579 6.75 9 6.75C9.41421 6.75 9.75 7.08579 9.75 7.5V14.25C9.75 14.6642 9.41421 15 9 15Z" fill="#2376C3"/>
<path d="M9 5.25C8.58579 5.25 8.25 4.91421 8.25 4.5V0.75C8.25 0.335786 8.58579 0 9 0C9.41421 0 9.75 0.335786 9.75 0.75V4.5C9.75 4.91421 9.41421 5.25 9 5.25Z" fill="#2376C3"/>
<path d="M15 15C14.5858 15 14.25 14.6642 14.25 14.25V10.5C14.25 10.0858 14.5858 9.75 15 9.75C15.4142 9.75 15.75 10.0858 15.75 10.5V14.25C15.75 14.6642 15.4142 15 15 15Z" fill="#2376C3"/>
<path d="M15 8.25C14.5858 8.25 14.25 7.91421 14.25 7.5V0.75C14.25 0.335786 14.5858 0 15 0C15.4142 0 15.75 0.335786 15.75 0.75V7.5C15.75 7.91421 15.4142 8.25 15 8.25Z" fill="#2376C3"/>
<path d="M5.25 9.75H0.75C0.335786 9.75 0 9.41421 0 9C0 8.58579 0.335786 8.25 0.75 8.25H5.25C5.66421 8.25 6 8.58579 6 9C6 9.41421 5.66421 9.75 5.25 9.75Z" fill="#2376C3"/>
<path d="M11.25 5.25H6.75C6.33579 5.25 6 4.91421 6 4.5C6 4.08579 6.33579 3.75 6.75 3.75H11.25C11.6642 3.75 12 4.08579 12 4.5C12 4.91421 11.6642 5.25 11.25 5.25Z" fill="#2376C3"/>
<path d="M17.25 11.25H12.75C12.3358 11.25 12 10.9142 12 10.5C12 10.0858 12.3358 9.75 12.75 9.75H17.25C17.6642 9.75 18 10.0858 18 10.5C18 10.9142 17.6642 11.25 17.25 11.25Z" fill="#2376C3"/>
</svg>
