<svg width="20" height="19" viewBox="0 0 20 19" fill="none" xmlns="http://www.w3.org/2000/svg">
<path fill-rule="evenodd" clip-rule="evenodd" d="M10.7909 11.8818L8.48182 9.6L8.50909 9.57273C10.0909 7.80909 11.2182 5.78182 11.8818 3.63636H14.5455V1.81818H8.18182V0H6.36364V1.81818H0V3.62727H10.1545C9.54545 5.38182 8.58182 7.04545 7.27273 8.5C6.42727 7.56364 5.72727 6.53636 5.17273 5.45455H3.35455C4.01818 6.93636 4.92727 8.33636 6.06364 9.6L1.43636 14.1636L2.72727 15.4545L7.27273 10.9091L10.1 13.7364L10.7909 11.8818ZM15.9091 7.27273H14.0909L10 18.1818H11.8182L12.8364 15.4545H17.1545L18.1818 18.1818H20L15.9091 7.27273ZM13.5273 13.6364L15 9.7L16.4727 13.6364H13.5273Z" fill="#162E51"/>
</svg>
