<?xml version="1.0" encoding="UTF-8"?>
<svg width="24px" height="24px" viewBox="0 0 24 24" version="1.1" xmlns="http://www.w3.org/2000/svg" xmlns:xlink="http://www.w3.org/1999/xlink">
    <title>Group 6</title>
    <g id="Public-form-pages" stroke="none" stroke-width="1" fill="none" fill-rule="evenodd">
        <g id="Contact-Mobile-Copy-2" transform="translate(-41.000000, -101.000000)">
            <g id="Group-8" transform="translate(17.000000, 84.000000)">
                <g id="Group-6" transform="translate(24.000000, 17.000000)">
                    <path d="M13.5001779,0.966346154 L23.7871121,21.2740385 C24.0817899,21.8365385 24.0683954,22.5288462 23.7603232,23.0913462 C23.452251,23.6538462 22.8896842,24 22.2869342,24 L1.71306581,24 C1.11031576,24 0.547749046,23.6538462 0.239676798,23.0913462 C-0.0683954496,22.5288462 -0.0817898952,21.8365385 0.212887907,21.2740385 L10.4998221,0.966346154 C10.7944999,0.375 11.3704611,0 12,0 C12.6295389,0 13.2055001,0.375 13.5001779,0.966346154 Z" id="Path" fill="#FFBE2E"></path>
                    <path d="M13.714489,19.8317308 L13.714489,17.0913462 C13.714489,16.8317308 13.5269668,16.6153846 13.2858668,16.6153846 L10.7141332,16.6153846 C10.4730332,16.6153846 10.285511,16.8317308 10.285511,17.0913462 L10.285511,19.8317308 C10.285511,20.0913462 10.4730332,20.3076923 10.7141332,20.3076923 L13.2858668,20.3076923 C13.5269668,20.3076923 13.714489,20.0913462 13.714489,19.8317308 Z" id="Path" fill="#FFF5DF"></path>
                    <path d="M13.6877001,14.4375 L13.9288002,7.81730769 C13.9288002,7.73076923 13.8886168,7.61538462 13.7948557,7.54326923 C13.714489,7.47115385 13.593939,7.38461538 13.473389,7.38461538 L10.526611,7.38461538 C10.406061,7.38461538 10.285511,7.47115385 10.2051443,7.54326923 C10.1113832,7.61538462 10.0711998,7.75961538 10.0711998,7.84615385 L10.2989054,14.4375 C10.2989054,14.625 10.4998221,14.7692308 10.7543166,14.7692308 L13.232289,14.7692308 C13.473389,14.7692308 13.6743057,14.625 13.6877001,14.4375 Z" id="Path" fill="#FFF5DF"></path>
                </g>
            </g>
        </g>
    </g>
</svg>